<?xml version="1.0" encoding="UTF-8" standalone="no"?>
<!DOCTYPE svg PUBLIC "-//W3C//DTD SVG 1.1//EN" "http://www.w3.org/Graphics/SVG/1.1/DTD/svg11.dtd">
<svg width="100%" height="100%" viewBox="0 0 608 463" version="1.1" xmlns="http://www.w3.org/2000/svg" xmlns:xlink="http://www.w3.org/1999/xlink" xml:space="preserve" xmlns:serif="http://www.serif.com/" style="fill-rule:evenodd;clip-rule:evenodd;stroke-linejoin:round;stroke-miterlimit:2;">
    <g transform="matrix(1,0,0,1,-195.570007,-98.35498)">
        <g>
            <path d="M248.53,325.541C248.53,325.541 263.972,345.432 298.116,332.975C297.752,333.647 285.912,355.136 283.279,391.141C283.279,391.141 295.604,384.048 302.587,379.896C302.587,379.896 304.57,400.382 311.454,420.582C311.454,420.582 335.542,424.536 370.765,427.565C377.439,428.127 384.511,428.677 391.901,429.151C437.786,432.092 495.699,432.466 544.481,422.311C642.562,401.902 651.726,404.942 648.532,400.36C648.532,400.36 690.187,360.885 693.15,310.98C693.15,310.98 707.325,319.868 713.603,330.431C713.603,330.277 713.581,290.725 690.617,253.959C690.617,253.959 710.376,251.878 728.792,228.418C728.792,228.418 703.25,221.291 682.763,202.578C681.618,201.532 680.495,200.53 679.393,199.582L679.36,199.538C660.955,183.502 650.382,180.594 650.382,180.594C650.382,180.594 672.664,169.304 671.474,142.584C671.474,142.584 641.769,142.287 600.488,136.042C559.207,129.808 538.709,129.213 507.814,136.042C507.814,136.042 516.163,122.979 512.583,103.968C512.583,103.968 474.552,115.258 445.739,127.429C416.936,139.61 408.621,160.108 408.621,160.108C408.621,160.108 369.113,155.647 323.668,163.665C323.668,163.665 324.12,177.477 353.076,189.956C353.076,189.956 350.212,190.672 345.201,192.897L345.179,192.897C337.502,196.311 324.803,203.25 309.713,216.533C284.766,238.518 248.53,259.896 248.53,259.896C248.53,259.896 263.972,272.375 296.045,269.699C296.045,269.699 288.324,299.107 248.53,325.541Z" style="fill:rgb(232,237,239);fill-rule:nonzero;"/>
            <path d="M391.901,429.151C437.786,432.092 495.699,432.466 544.481,422.311C642.562,401.902 651.726,404.942 648.532,400.36C648.532,400.36 690.187,360.885 693.15,310.98C693.15,310.98 707.325,319.868 713.603,330.431C713.603,330.277 713.581,290.725 690.617,253.959C690.617,253.959 710.376,251.878 728.792,228.418C728.792,228.418 703.25,221.291 682.763,202.578C681.618,201.532 680.495,200.53 679.393,199.582C680.296,200.805 723.318,220.796 728.792,228.418C728.792,228.418 698.203,240.964 651.792,212.006C651.792,212.006 660.041,236.954 660.041,250.765C660.041,250.765 646.263,236.061 618.408,210.453C618.672,210.894 624.62,220.553 630.336,236.15C638.74,238.881 643.333,240.963 643.333,240.963C643.333,240.963 666.947,274.159 663.379,318.26C663.379,318.26 632.638,304.669 612.813,291.309C612.813,291.309 592.315,320.716 562.918,334.749C562.918,334.749 562.918,316.476 564.031,292.861C564.031,292.861 540.494,325.838 498.981,342.767C498.981,342.767 498.981,308.909 501.437,287.971C501.437,287.971 463.262,327.908 428.81,348.703C428.81,348.703 427.036,329.098 427.334,307.72C427.334,307.72 409.216,341.28 389.313,363.253C389.313,363.253 385.149,398.972 391.901,429.151Z" style="fill:rgb(176,202,209);fill-rule:nonzero;"/>
            <path d="M248.53,325.541C248.53,325.541 263.972,345.432 298.116,332.975C297.752,333.647 285.912,355.136 283.279,391.141C283.279,391.141 295.604,384.048 302.587,379.896C302.587,379.896 304.57,400.382 311.454,420.582C311.454,420.582 335.542,424.536 370.765,427.565L346.842,419.326C346.842,419.326 342.492,334.616 392.133,278.719C390.106,265.227 388.212,247.472 389.313,232.867C389.313,232.867 361.689,274.457 345.058,293.754C345.058,293.754 343.086,275.69 346.743,256.801C346.743,256.801 328.724,273.565 316.542,282.178C316.542,282.178 309.779,221.137 363.507,189.956C363.507,189.956 356.656,191.046 345.201,192.897L345.179,192.897C337.502,196.311 324.803,203.25 309.713,216.533C284.766,238.518 248.53,259.896 248.53,259.896C248.53,259.896 263.972,272.375 296.045,269.699C296.045,269.699 288.324,299.107 248.53,325.541Z" style="fill:rgb(176,202,209);fill-rule:nonzero;"/>
            <path d="M651.562,403.558C651.72,403.404 662.338,393.336 673.39,376.835C678.915,368.582 684.549,358.717 689.015,347.648C693.478,336.58 696.774,324.298 697.552,311.246L693.154,310.984L690.813,314.716L690.813,314.717C690.923,314.785 694.356,316.962 698.429,320.316C700.464,321.992 702.659,323.961 704.67,326.079C706.682,328.196 708.505,330.467 709.819,332.681L718.011,346.45L718.011,330.428C718.01,330.136 717.994,319.939 715.046,305.061C712.092,290.186 706.212,270.609 694.356,251.624L690.62,253.958L691.081,258.339C691.471,258.298 696.905,257.676 704.698,253.962C712.487,250.254 722.622,243.425 732.261,231.135L736.335,225.945L729.98,224.172L729.512,225.846L729.983,224.172L729.98,224.172L729.512,225.846L729.983,224.172C729.953,224.165 723.735,222.411 715.102,218.416C706.467,214.426 695.429,208.184 685.729,199.321C664.805,180.21 652.284,176.545 651.553,176.348L650.385,180.596L652.376,184.526C652.682,184.363 658.394,181.457 664.217,175.042C667.123,171.834 670.051,167.732 672.256,162.663C674.463,157.597 675.927,151.561 675.924,144.63C675.924,143.891 675.907,143.142 675.874,142.384L675.689,138.215L671.516,138.173L671.443,138.172C669.806,138.152 640.861,137.689 601.145,131.688C579.952,128.488 564.06,126.737 549.294,126.735C535.187,126.732 522.175,128.354 506.867,131.743L507.819,136.044L511.533,138.415C511.671,138.197 513.24,135.704 514.793,131.386C516.344,127.071 517.88,120.919 517.88,113.44C517.88,110.235 517.597,106.788 516.913,103.153L516.011,98.355L511.33,99.744C511.299,99.753 501.753,102.586 488.581,106.951C475.407,111.317 458.619,117.207 444.028,123.373C428.94,129.746 419.083,138.379 413.027,145.471C406.965,152.566 404.673,158.108 404.535,158.446L408.617,160.102L409.111,155.724C408.984,155.71 397.887,154.463 380.683,154.462C365.197,154.464 344.765,155.471 322.906,159.328L319.145,159.991L319.269,163.808C319.28,164.186 319.373,165.48 320.012,167.407C320.966,170.298 323.169,174.587 327.955,179.292C332.741,184.005 340.076,189.149 351.333,193.998L353.076,189.952L352.007,185.678C351.439,185.815 332.329,190.733 306.8,213.229C294.583,223.995 279.406,234.763 267.326,242.789C261.284,246.805 256.012,250.141 252.258,252.469C250.38,253.633 248.882,254.545 247.856,255.165C247.343,255.475 246.949,255.711 246.683,255.869C246.551,255.948 246.451,256.008 246.384,256.047L246.289,256.104L240.817,259.333L245.76,263.326C246.047,263.558 249.575,266.347 256.462,269.081C263.345,271.816 273.591,274.483 287.203,274.481C290.12,274.481 293.191,274.359 296.416,274.09L296.05,269.7L291.788,268.581L293.442,269.015L291.792,268.567L291.788,268.581L293.442,269.015L291.792,268.567C291.77,268.648 289.855,275.657 283.203,285.79C276.547,295.925 265.166,309.195 246.09,321.868L242.139,324.492L245.047,328.239C245.283,328.538 247.865,331.803 253.103,335.051C255.721,336.673 259.005,338.284 262.964,339.486C266.921,340.689 271.553,341.48 276.828,341.479C283.443,341.48 291.057,340.238 299.64,337.101L298.129,332.963L294.291,330.799C294.07,331.198 281.625,353.389 278.884,390.815L278.279,399.093L285.474,394.956C285.484,394.95 297.804,387.867 304.839,383.676L302.584,379.891L298.199,380.316C298.208,380.404 298.717,385.633 300.1,393.432C301.485,401.232 303.738,411.597 307.279,422.001C308.063,424.305 310.566,425.536 312.869,424.752C315.172,423.968 316.404,421.465 315.62,419.161C312.284,409.369 310.104,399.389 308.776,391.893C308.111,388.144 307.657,385.015 307.37,382.835C307.227,381.745 307.126,380.891 307.061,380.316C307.028,380.028 307.005,379.81 306.99,379.667L306.974,379.508L306.969,379.465L306.298,372.55L300.329,376.106C296.871,378.166 292.051,380.974 288.105,383.261C286.131,384.405 284.375,385.419 283.112,386.148C281.85,386.876 281.084,387.316 281.082,387.317L283.278,391.137L287.672,391.458C288.978,373.594 292.603,359.417 295.879,349.749C297.516,344.915 299.066,341.209 300.193,338.737C300.757,337.5 301.214,336.573 301.524,335.967C301.678,335.664 301.796,335.441 301.872,335.301L301.953,335.151L301.969,335.123L301.97,335.121L299.718,333.859L301.967,335.127L301.97,335.121L299.718,333.859L301.967,335.127L307.827,324.731L296.617,328.825C288.899,331.642 282.342,332.666 276.828,332.667C272.429,332.666 268.687,332.015 265.525,331.055C260.785,329.615 257.338,327.47 255.094,325.717C253.974,324.841 253.158,324.065 252.645,323.535C252.388,323.271 252.207,323.067 252.101,322.945L251.998,322.823L251.989,322.812L250.041,324.363L252.008,322.837L251.989,322.812L250.041,324.363L252.008,322.837L248.528,325.538L250.965,329.208C271.386,315.648 283.71,301.219 290.911,290.102C298.116,278.983 300.214,271.188 300.311,270.819L301.894,264.792L295.684,265.309C292.7,265.558 289.874,265.669 287.203,265.669C274.74,265.667 265.648,263.245 259.713,260.892C256.746,259.714 254.571,258.551 253.172,257.711C252.473,257.291 251.968,256.952 251.656,256.732C251.499,256.623 251.391,256.542 251.332,256.497L251.278,256.456L251.265,256.472L251.278,256.456L251.265,256.472L251.278,256.456L249.459,258.745L251.296,256.471L251.278,256.456L249.459,258.745L251.296,256.471L248.528,259.898L250.767,263.692C250.814,263.664 259.932,258.283 272.203,250.128C284.478,241.966 299.892,231.053 312.625,219.84C324.81,209.106 335.33,202.673 342.735,198.934C346.438,197.065 349.361,195.87 351.324,195.152C352.305,194.792 353.046,194.552 353.524,194.406C353.763,194.333 353.936,194.284 354.04,194.254L354.145,194.226L354.137,194.194L354.145,194.226L354.137,194.194L354.145,194.226L366.793,191.064L354.819,185.906C347.846,182.902 342.689,179.86 338.888,177.043C333.184,172.81 330.527,169.111 329.248,166.661C328.61,165.433 328.316,164.51 328.18,163.961C328.112,163.688 328.083,163.508 328.073,163.431L328.068,163.394L328.068,163.391L325.697,163.601L328.075,163.524L328.068,163.391L325.697,163.601L328.075,163.524L323.672,163.666L324.438,168.005C345.629,164.264 365.582,163.273 380.683,163.274C389.072,163.274 395.964,163.579 400.743,163.882C403.132,164.034 404.993,164.185 406.249,164.298C406.877,164.354 407.353,164.4 407.669,164.433C407.827,164.449 407.944,164.461 408.02,164.469L408.103,164.478L408.123,164.48L411.443,164.855L412.699,161.759L410.514,160.872L412.692,161.776L412.699,161.759L410.514,160.872L412.692,161.776C412.692,161.776 412.721,161.708 412.784,161.569C413.258,160.52 415.627,155.65 421.014,149.736C426.406,143.819 434.794,136.846 447.459,131.489C461.678,125.478 478.31,119.636 491.353,115.315C497.876,113.153 503.505,111.37 507.499,110.128C509.496,109.507 511.084,109.022 512.172,108.692C512.715,108.527 513.133,108.401 513.414,108.317C513.695,108.233 513.836,108.191 513.836,108.191L512.583,103.967L508.254,104.782C508.832,107.858 509.069,110.753 509.069,113.44C509.07,119.704 507.778,124.854 506.501,128.405C505.863,130.18 505.23,131.551 504.773,132.452C504.545,132.903 504.361,133.235 504.242,133.442C504.183,133.545 504.14,133.617 504.116,133.656L504.095,133.69L505.51,134.571L504.105,133.674L504.095,133.69L505.51,134.571L504.105,133.674L498.38,142.644L508.77,140.346C523.65,137.059 535.863,135.551 549.294,135.547C563.343,135.545 578.799,137.222 599.828,140.401C641.4,146.68 671.283,146.982 671.428,146.984L671.472,142.579L667.071,142.773C667.099,143.404 667.113,144.023 667.113,144.63C667.109,150.329 665.932,155.102 664.176,159.149C661.545,165.207 657.546,169.642 654.189,172.545C652.513,173.994 651.007,175.056 649.948,175.738C649.418,176.08 649,176.327 648.73,176.481C648.594,176.557 648.496,176.611 648.438,176.642L648.383,176.671L648.38,176.673L649.603,179.054L648.393,176.666L648.38,176.673L649.603,179.054L648.393,176.666L638.221,181.82L649.216,184.844L649.786,182.772L649.183,184.835L649.216,184.844L649.786,182.772L649.183,184.835C649.195,184.842 660.353,188.088 679.788,205.828C690.506,215.608 702.389,222.258 711.619,226.513C720.851,230.764 727.444,232.611 727.611,232.659L728.795,228.415L725.33,225.695C716.555,236.869 707.601,242.811 700.906,246.009C697.559,247.604 694.777,248.507 692.877,249.005C691.927,249.254 691.199,249.402 690.732,249.485C690.499,249.527 690.331,249.552 690.234,249.566L690.141,249.578L690.136,249.579L690.441,252.261L690.159,249.576L690.136,249.579L690.441,252.261L690.159,249.576L683.149,250.314L686.883,256.292C697.991,274.063 703.604,292.643 706.403,306.775C707.803,313.839 708.504,319.786 708.853,323.95C709.028,326.032 709.115,327.669 709.158,328.776C709.179,329.33 709.19,329.751 709.195,330.03C709.198,330.169 709.199,330.273 709.199,330.34L709.2,330.412L709.2,330.428L713.606,330.428L717.392,328.175C715.587,325.146 713.322,322.386 710.948,319.896C707.387,316.167 703.569,313.05 700.615,310.83C697.662,308.613 695.574,307.301 695.495,307.252L689.198,303.302L688.756,310.722C688.049,322.619 685.025,333.984 680.843,344.352C674.575,359.903 665.698,373.184 658.396,382.525C654.746,387.197 651.492,390.885 649.166,393.391C648.003,394.643 647.072,395.601 646.439,396.237C646.123,396.556 645.88,396.794 645.721,396.949L645.546,397.12L645.507,397.157L645.5,397.164L646.206,397.907L645.501,397.163L645.5,397.164L646.206,397.907L645.501,397.163C643.735,398.836 643.66,401.625 645.334,403.391C647.008,405.157 649.796,405.232 651.562,403.558Z" style="fill:rgb(3,9,28);fill-rule:nonzero;"/>
            <path d="M682.27,476.194C772.858,452.028 797.375,305.108 797.375,305.108C679.374,331.777 641.139,383.422 641.139,383.422C641.139,383.422 625.99,394.576 622.79,405.026C613.114,436.706 614.134,494.373 682.27,476.194Z" style="fill:rgb(24,165,214);fill-rule:nonzero;"/>
            <path d="M678.555,391.038C678.555,391.038 715.479,355.625 780.65,327.647C781.542,327.264 782.485,328.095 782.204,329.024C776.608,347.541 736.669,469.993 660.322,466.014C657.087,465.846 654.735,462.858 655.296,459.667C655.643,457.694 657.044,456.059 658.956,455.458C663.76,453.949 673.464,449.579 682.409,437.504C694.92,420.614 689.199,397.076 678.555,391.038Z" style="fill:rgb(22,107,183);fill-rule:nonzero;"/>
            <path d="M662.229,377.541C662.348,374.955 662.468,372.177 662.58,369.298C675.058,359.099 688.485,350.048 702.582,342.287C726.658,328.872 752.79,319.359 779.637,313.178C753.691,325.307 703.943,349.791 662.229,377.541Z" style="fill:rgb(163,219,239);fill-rule:nonzero;"/>
            <path d="M776.521,329.052C766.133,335.672 755.631,341.762 745.203,347.999C729.619,357.4 714.743,367.777 700.273,378.73C695.514,382.42 690.765,386.11 686.158,389.963C679.208,395.758 672.732,401.98 665.497,407.463C663.03,409.297 660.593,411.175 657.78,412.835C662.064,400.824 671.36,391.811 680.69,383.571C690.023,375.426 700.002,368.094 710.448,361.461C731.443,348.685 752.898,336.253 776.521,329.052Z" style="fill:rgb(3,9,28);fill-rule:nonzero;"/>
            <path d="M684.036,387.443C697.135,405.159 698.609,428.732 680.782,443.8C675.739,448.177 669.919,451.358 663.809,453.483C673.405,446.313 683.008,438.309 686.249,426.511C689.203,415.418 685.019,403.709 678.476,394.66C678.061,394.083 677.569,393.432 677.218,393.026C673.502,388.395 680.203,382.872 684.036,387.443Z" style="fill:rgb(3,9,28);fill-rule:nonzero;"/>
            <path d="M739.202,352.595C744.406,371.033 739.909,392.231 726.365,405.988C731.916,398.658 735.519,390.015 736.545,380.91C737.491,372.135 736.434,363.091 733.12,354.928C731.345,350.684 737.67,348.238 739.202,352.595Z" style="fill:rgb(3,9,28);fill-rule:nonzero;"/>
            <path d="M622.79,405.026C627.892,387.816 641.827,375.343 654.582,363.532C693.819,328.417 744.506,306.432 796.762,300.746L802.735,299.776C800.676,313.068 797.769,326.118 794.093,338.98C776.074,401.805 737.732,476.801 664.746,482.867C654.676,483.508 636.59,483.664 632.957,471.753C638.574,473.507 642.832,474.783 648.321,475.901C653.427,476.766 658.797,476.699 664.119,476.128C709.567,471.457 740.973,436.271 760.818,397.679C775.943,368.432 786.404,336.595 793.034,304.383L797.997,309.47L791.74,310.624C760.66,316.598 730.263,326.863 702.582,342.287C684.121,352.45 666.81,364.826 651.273,379.097C641.884,387.98 633.182,397.124 622.79,405.026Z" style="fill:rgb(3,9,28);fill-rule:nonzero;"/>
            <path d="M353.076,364.74L368.232,454.627L373.805,487.702C461.07,570.275 549.107,555.274 549.107,555.274C660.933,514.732 664.943,453.25 664.943,453.25L661.374,393.85C661.374,393.85 663.158,364.74 663.158,344.254C663.158,344.254 656.33,308.909 653.058,296.133C653.058,296.133 651.175,294.404 647.507,291.661C630.138,278.642 572.809,242.945 487.923,262.572C385.149,286.33 353.076,364.74 353.076,364.74Z" style="fill:rgb(24,165,214);fill-rule:nonzero;"/>
            <path d="M353.076,364.74L368.232,454.627L384.929,460.376C384.346,458.339 383.828,456.257 383.365,454.153C376.614,423.974 380.777,388.255 380.777,388.255C400.679,366.282 418.798,332.722 418.798,332.722C418.5,354.1 420.274,373.706 420.274,373.706C454.726,352.911 492.901,312.973 492.901,312.973C490.445,333.911 490.445,367.769 490.445,367.769C531.957,350.84 555.495,317.864 555.495,317.864C554.382,341.478 554.382,359.751 554.382,359.751C583.779,345.719 604.277,316.311 604.277,316.311C624.102,329.671 654.843,343.262 654.843,343.262C656.473,323.062 652.409,305.142 647.507,291.661C630.138,278.642 572.809,242.945 487.923,262.572C385.149,286.33 353.076,364.74 353.076,364.74Z" style="fill:rgb(22,107,183);fill-rule:nonzero;"/>
            <path d="M463.92,463.149C550.349,492.649 611.773,456.817 611.773,456.817C611.773,456.817 605.237,518.298 539.45,520.674C473.663,523.05 463.92,463.149 463.92,463.149Z" style="fill:rgb(63,7,0);fill-rule:nonzero;"/>
            <path d="M572.442,510.932C572.442,510.932 559.144,497.972 528.809,496.453C498.473,494.934 484.099,501.109 484.099,501.109C484.099,501.109 523.406,539.19 572.442,510.932Z" style="fill:rgb(197,82,61);fill-rule:nonzero;"/>
            <path d="M542.142,476.172C562.424,474.868 579.281,473.35 591.4,468.156C591.4,468.156 591.803,479.738 583.165,487.09C581.627,488.399 579.261,488.295 577.896,486.847L573.718,479.761C573.718,479.761 569.877,483.881 560.955,486.264C549.118,489.427 536.722,490.305 524.557,488.842C515.388,487.74 511.346,483.325 511.346,483.325L507.867,491.806C506.721,493.432 504.393,493.869 502.686,492.79C493.098,486.729 491.885,473.774 491.885,473.774C504.616,477.208 521.879,477.739 542.142,476.172Z" style="fill:white;fill-rule:nonzero;"/>
            <path d="M463.92,463.149L462.497,467.319C488.178,476.085 511.754,479.205 532.247,479.204C557.142,479.204 577.483,474.609 591.638,469.996C605.795,465.382 613.775,460.749 613.993,460.622L611.773,456.817L607.392,456.351L609.075,456.53L607.393,456.344L607.392,456.351L609.075,456.53L607.393,456.344C607.389,456.387 606.971,460.112 605.373,465.651C602.981,473.972 597.92,486.309 587.839,496.607C582.795,501.765 576.506,506.44 568.569,509.96C560.63,513.476 551.024,515.845 539.291,516.271C538.064,516.316 536.859,516.337 535.675,516.337C520.753,516.331 509.284,512.92 500.294,507.899C493.555,504.128 488.199,499.423 483.923,494.447C477.512,486.989 473.558,478.906 471.24,472.709C470.08,469.612 469.327,466.992 468.87,465.172C468.641,464.263 468.487,463.553 468.391,463.085C468.344,462.85 468.311,462.676 468.291,462.567L468.271,462.454L468.267,462.435L468.174,462.451L468.267,462.435L468.174,462.451L468.267,462.435L465.323,462.921L468.269,462.442L468.267,462.435L465.323,462.921L468.269,462.442L463.92,463.149L462.497,467.319L463.92,463.149L459.572,463.857C459.603,464.048 460.237,467.88 462.191,473.578C465.128,482.114 471.028,494.911 482.54,505.732C488.292,511.134 495.455,516.016 504.255,519.521C513.054,523.029 523.469,525.151 535.675,525.149C536.966,525.149 538.277,525.125 539.609,525.077C556.735,524.467 570.299,519.956 580.821,513.443C588.715,508.562 594.886,502.587 599.669,496.413C606.847,487.145 610.931,477.446 613.253,470.041C615.573,462.633 616.13,457.499 616.154,457.283C616.329,455.634 615.559,454.019 614.166,453.118C612.774,452.217 610.985,452.176 609.553,453.011L609.551,453.012C609.297,453.16 601.679,457.516 588.274,461.824C574.867,466.133 555.682,470.393 532.247,470.393C512.645,470.391 490.068,467.418 465.343,458.98C463.881,458.481 462.257,458.787 461.077,459.784C459.896,460.782 459.323,462.331 459.572,463.857L463.92,463.149Z" style="fill:rgb(3,9,28);fill-rule:nonzero;"/>
            <path d="M542.561,432.625C540.878,428.1 542.165,423.175 544.818,419.289C549.449,412.574 558.617,410.44 566.268,411.943C577.031,413.646 589.11,426.094 580.056,436.494C579.079,437.443 575.737,440.503 574.727,438.346C574.626,438.084 574.622,437.809 574.696,437.559C575.813,433.431 577.549,429.735 574.803,426.453C572.284,423.458 568.527,421.272 564.619,420.593C560.611,419.827 556.401,420.63 553.02,422.483C552.236,422.923 551.614,423.419 551.017,424.059C548.885,426.348 547.731,429.473 546.439,432.299L546.077,432.923C545.318,434.343 543.064,434.131 542.561,432.625Z" style="fill:rgb(3,9,28);fill-rule:nonzero;"/>
            <path d="M564.755,361.793C572.212,345.794 585.407,333.828 602.657,329.519C614.481,326.299 627.054,325.879 639.268,325.662C641.412,325.664 643.575,325.627 645.768,325.525C647.336,325.521 648.607,324.205 648.528,322.632C648.476,321.506 647.754,320.569 646.767,320.185C644.674,319.374 642.552,318.628 640.41,317.922C620.341,311.84 597.045,311.638 578.955,323.535C567.176,331.335 558.921,345.146 559.609,359.429C559.638,360.051 559.697,360.616 559.788,361.335C560.204,364.049 563.796,364.303 564.755,361.793Z" style="fill:rgb(3,9,28);fill-rule:nonzero;"/>
            <path d="M507.286,364.178C493.083,351.331 474.159,344.121 453.724,345.459C439.617,346.123 425.755,349.681 412.363,353.319C410.027,353.996 407.656,354.642 405.228,355.236C403.517,355.725 401.633,354.875 401.121,353.357C400.75,352.271 401.181,351.154 402.111,350.478C404.083,349.05 406.113,347.674 408.178,346.328C427.738,334.236 453.047,326.711 477.28,332.316C493.078,336.015 507.32,346.533 511.996,360.314C512.2,360.914 512.351,361.468 512.525,362.18C513.102,364.888 509.284,366.26 507.286,364.178Z" style="fill:rgb(3,9,28);fill-rule:nonzero;"/>
            <path d="M409.656,427.411L422.135,435.374C424.712,436.795 427.268,438.061 429.812,439.207C472.58,458.371 509.819,439.757 518.476,434.79C518.982,434.493 519.401,434.25 519.698,434.063C520.138,433.799 520.37,433.645 520.37,433.645C520.37,433.512 520.359,433.38 520.359,433.237C519.357,401.682 505.711,361.931 463.923,363.484C421.948,365.037 409.656,427.411 409.656,427.411Z" style="fill:white;fill-rule:nonzero;"/>
            <path d="M500.43,403.697C501.383,413.625 498.33,422.974 492.657,429.958C487.249,436.609 479.464,441.127 470.5,441.987C461.525,442.848 453.023,439.893 446.449,434.392C439.551,428.614 434.777,420.016 433.824,410.088C431.965,390.715 445.368,373.573 463.766,371.808C482.153,370.044 498.571,384.324 500.43,403.697Z" style="fill:rgb(7,24,79);fill-rule:nonzero;"/>
            <path d="M492.556,426.61C492.664,427.733 492.694,428.853 492.657,429.958C487.249,436.609 479.464,441.127 470.5,441.987C461.525,442.848 453.023,439.893 446.449,434.392C446.203,433.314 446.019,432.209 445.912,431.086C444.609,417.516 453.994,405.516 466.882,404.279C479.759,403.043 491.254,413.04 492.556,426.61Z" style="fill:rgb(17,79,147);fill-rule:nonzero;"/>
            <path d="M500.432,403.701L496.516,404.077C496.62,405.158 496.67,406.23 496.67,407.29C496.671,415.274 493.796,422.626 489.038,428.149C484.271,433.671 477.685,437.341 470.12,438.07C469.213,438.157 468.314,438.2 467.422,438.2C459.929,438.199 452.936,435.197 447.569,430.117C442.209,425.036 438.527,417.91 437.741,409.717C437.637,408.636 437.586,407.565 437.586,406.505C437.586,398.521 440.461,391.168 445.219,385.646C449.986,380.123 456.571,376.454 464.137,375.724C465.043,375.637 465.943,375.595 466.835,375.595C474.327,375.596 481.32,378.597 486.687,383.677C492.048,388.758 495.729,395.885 496.516,404.077L500.432,403.701L504.349,403.326C503.38,393.225 498.82,384.331 492.099,377.965C485.386,371.598 476.457,367.725 466.835,367.726C465.693,367.726 464.542,367.781 463.385,367.891C453.702,368.817 445.233,373.564 439.258,380.51C433.273,387.456 429.718,396.624 429.718,406.505C429.718,407.815 429.78,409.138 429.908,410.469C430.877,420.569 435.436,429.463 442.157,435.829C448.871,442.197 457.799,446.069 467.422,446.069C468.564,446.069 469.715,446.014 470.871,445.903C480.554,444.977 489.023,440.231 494.999,433.285C500.983,426.339 504.538,417.17 504.539,407.29C504.539,405.979 504.476,404.656 504.349,403.326L500.432,403.701Z" style="fill:rgb(0,9,35);fill-rule:nonzero;"/>
            <path d="M468.018,402.734C468.358,406.274 467.503,409.585 465.854,412.039C464.283,414.376 461.993,415.94 459.331,416.196C456.665,416.452 454.119,415.352 452.132,413.356C450.047,411.26 448.578,408.172 448.238,404.632C447.575,397.724 451.466,391.697 456.929,391.173C462.39,390.649 467.355,395.826 468.018,402.734Z" style="fill:white;fill-rule:nonzero;"/>
            <path d="M457.691,383.657C457.2,383.657 456.704,383.681 456.215,383.727C446.655,384.645 439.737,394.343 440.793,405.346C441.287,410.496 443.431,415.214 446.829,418.631C450.092,421.908 454.26,423.712 458.568,423.712C459.059,423.712 459.556,423.688 460.045,423.641C464.816,423.183 469.196,420.475 472.062,416.211C474.75,412.209 475.958,407.169 475.464,402.019C474.459,391.551 466.819,383.657 457.691,383.657ZM457.691,391.137C462.844,391.136 467.386,396.149 468.018,402.734C468.358,406.274 467.503,409.585 465.854,412.039C464.283,414.376 461.993,415.94 459.331,416.196C459.075,416.22 458.821,416.233 458.568,416.233C456.182,416.233 453.929,415.16 452.132,413.356C450.047,411.26 448.578,408.172 448.238,404.632C447.576,397.724 451.466,391.697 456.929,391.173C457.184,391.148 457.439,391.137 457.691,391.137Z" style="fill:rgb(10,17,51);fill-rule:nonzero;"/>
            <path d="M518.619,435.319C518.619,435.319 518.575,435.132 518.476,434.79C518.982,434.493 519.401,434.25 519.698,434.063C519.038,434.878 518.619,435.319 518.619,435.319Z" style="fill:rgb(19,126,167);"/>
            <path d="M429.812,439.207C427.268,438.061 424.712,436.795 422.135,435.374L409.656,427.411C409.656,427.411 421.948,365.037 463.923,363.484C464.719,363.455 465.501,363.44 466.276,363.44C506.222,363.44 519.375,402.282 520.359,433.237C520.117,433.546 519.896,433.821 519.698,434.063C519.401,434.25 518.982,434.493 518.476,434.79C517.711,431.969 513.695,418.414 504.526,406.28C504.502,405.301 504.443,404.315 504.349,403.326L502.326,403.52L504.349,403.326C503.38,393.225 498.82,384.331 492.099,377.965C485.386,371.598 476.457,367.725 466.835,367.726C465.693,367.726 464.542,367.781 463.385,367.891C453.702,368.817 445.233,373.564 439.258,380.51C433.273,387.456 429.718,396.624 429.718,406.505C429.718,407.815 429.78,409.138 429.908,410.469C430.371,415.298 431.655,419.851 433.604,423.984C432.031,429.171 430.789,434.369 429.812,439.207Z" style="fill:rgb(192,193,198);fill-rule:nonzero;"/>
            <path d="M438.011,411.829C437.9,411.134 437.809,410.429 437.741,409.717C437.637,408.636 437.586,407.565 437.586,406.505C437.586,398.521 440.461,391.168 445.219,385.646C449.986,380.123 456.571,376.454 464.137,375.724C465.043,375.637 465.943,375.595 466.835,375.595C474.327,375.596 481.32,378.597 486.687,383.677C490.185,386.992 492.967,391.178 494.698,395.963C487.974,390.491 479.584,386.505 469.232,385.909C468.726,385.881 468.229,385.866 467.735,385.866C467.105,385.866 466.486,385.889 465.874,385.935C463.416,384.476 460.63,383.657 457.691,383.657C457.2,383.657 456.704,383.681 456.215,383.727C446.655,384.645 439.737,394.343 440.793,405.346C440.811,405.536 440.832,405.726 440.854,405.914C439.839,407.816 438.892,409.796 438.011,411.829Z" style="fill:rgb(6,20,66);fill-rule:nonzero;"/>
            <path d="M433.604,423.984C431.655,419.851 430.371,415.298 429.908,410.469C429.78,409.138 429.718,407.815 429.718,406.505C429.718,396.624 433.273,387.456 439.258,380.51C445.233,373.564 453.702,368.817 463.385,367.891C464.542,367.781 465.693,367.726 466.835,367.726C476.457,367.725 485.386,371.598 492.099,377.965C498.82,384.331 503.38,393.225 504.349,403.326L502.326,403.52C500.063,400.832 497.529,398.266 494.698,395.963C492.967,391.178 490.185,386.992 486.687,383.677C481.32,378.597 474.327,375.596 466.835,375.595C465.943,375.595 465.043,375.637 464.137,375.724C456.571,376.454 449.986,380.123 445.219,385.646C440.461,391.168 437.586,398.521 437.586,406.505C437.586,407.565 437.637,408.636 437.741,409.717C437.809,410.429 437.9,411.134 438.011,411.829C436.312,415.747 434.853,419.862 433.604,423.984ZM504.526,406.28C503.824,405.351 503.089,404.427 502.326,403.52L504.349,403.326C504.443,404.315 504.502,405.301 504.526,406.28Z" style="fill:rgb(1,9,33);fill-rule:nonzero;"/>
            <path d="M440.854,405.914C440.832,405.726 440.811,405.536 440.793,405.346C439.737,394.343 446.655,384.645 456.215,383.727C456.704,383.681 457.2,383.657 457.691,383.657C460.63,383.657 463.416,384.476 465.874,385.935C454.717,386.768 446.654,395.055 440.854,405.914Z" style="fill:rgb(8,15,45);fill-rule:nonzero;"/>
            <path d="M405.342,427.082C405.835,422.753 406.695,418.71 407.725,414.523C415.84,382.363 438.177,354.239 474.429,359.145C511.672,363.77 526.382,402.02 521.674,435.433C521.377,437.219 518.757,437.058 518.616,435.315C517.568,427.559 516,419.824 513.852,412.467C508.146,392.736 497.225,375.011 475.59,371.648C441.712,366.262 425.721,394.345 418.342,423.036C421.278,427.045 427.636,434.288 438.675,440.322C439.666,440.864 439.096,442.373 437.999,442.102C429.688,440.053 417.486,436.766 409.918,433.464C407.296,432.879 405.046,430.645 405.342,427.082Z" style="fill:rgb(3,9,28);fill-rule:nonzero;"/>
            <path d="M575.386,407.927C575.838,411.374 576.917,415.284 580.596,418.258C585.079,421.904 593.439,424.162 609.244,422.509C623.144,421.045 633.552,411.903 640.59,402.849C648.113,393.168 651.792,383.607 651.792,383.607C647.562,366.392 626.327,335.486 600.333,346.478C574.351,357.471 574.384,400.239 575.386,407.927Z" style="fill:white;fill-rule:nonzero;"/>
            <path d="M626.938,384.613C627.75,393.084 625.548,401.022 621.352,406.919C617.354,412.535 611.547,416.309 604.819,416.954C598.083,417.601 591.664,415 586.67,410.247C581.43,405.255 577.758,397.881 576.945,389.411C575.359,372.881 585.264,358.403 599.073,357.078C612.874,355.753 625.351,368.084 626.938,384.613Z" style="fill:rgb(7,24,79);fill-rule:nonzero;"/>
            <path d="M621.244,404.065C621.336,405.023 621.37,405.977 621.352,406.919C617.354,412.535 611.547,416.309 604.819,416.955C598.083,417.601 591.664,415 586.67,410.247C586.474,409.326 586.326,408.382 586.234,407.424C585.123,395.846 592.058,385.71 601.732,384.782C611.397,383.854 620.133,392.487 621.244,404.065Z" style="fill:rgb(17,79,147);fill-rule:nonzero;"/>
            <path d="M626.94,384.617L623.023,384.993C623.123,386.037 623.172,387.069 623.172,388.089C623.176,394.786 621.054,400.871 617.648,405.309C615.947,407.53 613.933,409.34 611.711,410.652C609.485,411.964 607.056,412.786 604.44,413.038C603.883,413.092 603.331,413.118 602.782,413.118C600.142,413.117 597.579,412.516 595.15,411.38C591.511,409.681 588.184,406.751 585.645,402.9C583.107,399.053 581.366,394.302 580.862,389.039C580.761,387.995 580.713,386.962 580.713,385.943C580.709,379.246 582.831,373.161 586.236,368.723C587.938,366.501 589.951,364.691 592.174,363.379C594.399,362.068 596.828,361.246 599.445,360.994C600.002,360.94 600.554,360.914 601.103,360.914C603.743,360.915 606.306,361.516 608.735,362.651C612.373,364.351 615.701,367.28 618.239,371.131C620.778,374.979 622.519,379.729 623.023,384.993L626.94,384.617L630.856,384.241C630.018,375.541 626.466,367.828 621.188,362.209C618.548,359.401 615.469,357.115 612.07,355.524C608.674,353.933 604.951,353.044 601.103,353.045C600.304,353.045 599.5,353.083 598.693,353.161C594.896,353.524 591.331,354.738 588.174,356.603C583.433,359.404 579.604,363.639 576.961,368.702C574.317,373.769 572.845,379.682 572.844,385.943C572.844,387.213 572.905,388.497 573.029,389.79C573.867,398.491 577.419,406.204 582.696,411.823C585.336,414.631 588.416,416.916 591.815,418.508C595.211,420.098 598.933,420.987 602.782,420.986C603.581,420.986 604.385,420.948 605.191,420.871C608.989,420.508 612.554,419.294 615.711,417.428C620.452,414.627 624.28,410.392 626.924,405.329C629.567,400.262 631.04,394.349 631.041,388.089C631.041,386.819 630.98,385.535 630.856,384.241L626.94,384.617Z" style="fill:rgb(0,9,35);fill-rule:nonzero;"/>
            <path d="M601.352,384.799C601.629,387.691 601.045,390.385 599.882,392.372C598.773,394.265 597.139,395.52 595.226,395.704C593.31,395.887 591.468,394.966 590.019,393.319C588.5,391.589 587.414,389.055 587.136,386.163C586.595,380.52 589.338,375.638 593.264,375.261C597.188,374.884 600.81,379.155 601.352,384.799Z" style="fill:white;fill-rule:nonzero;"/>
            <path d="M593.747,369.507C593.404,369.507 593.058,369.523 592.717,369.556C588.951,369.917 585.602,372.24 583.528,375.929C581.803,378.998 581.058,382.827 581.431,386.71C581.814,390.704 583.335,394.394 585.714,397.101C588.185,399.911 591.391,401.458 594.743,401.458C595.085,401.458 595.432,401.441 595.773,401.409C599.448,401.056 602.748,398.818 604.827,395.269C606.648,392.157 607.44,388.245 607.057,384.251C606.25,375.845 600.528,369.507 593.747,369.507ZM593.747,375.238C597.481,375.238 600.832,379.387 601.352,384.799C601.629,387.691 601.045,390.385 599.882,392.372C598.773,394.265 597.139,395.52 595.226,395.704C595.064,395.719 594.903,395.727 594.743,395.727C593.002,395.727 591.346,394.827 590.019,393.319C588.5,391.589 587.414,389.055 587.136,386.163C586.595,380.52 589.338,375.638 593.264,375.261C593.426,375.245 593.587,375.238 593.747,375.238Z" style="fill:rgb(10,17,51);fill-rule:nonzero;"/>
            <path d="M580.596,418.258C576.917,415.284 575.838,411.374 575.386,407.927C575.221,406.658 575.082,404.433 575.082,401.554C575.082,400.822 575.091,400.047 575.111,399.234C576.53,403.238 578.568,406.871 581.088,409.98C580.847,412.846 580.686,415.628 580.596,418.258ZM639.874,403.025C639.874,403.025 636.769,388.176 629.141,375.885C627.449,370.616 624.701,365.949 621.188,362.209C618.548,359.401 615.469,357.115 612.07,355.524C608.676,353.934 604.956,353.045 601.111,353.045L601.103,353.045C600.304,353.045 599.5,353.083 598.693,353.161C594.896,353.524 591.331,354.738 588.174,356.603C587.717,356.873 587.269,357.156 586.829,357.452C590.274,352.753 594.691,348.866 600.333,346.478C604.108,344.882 607.778,344.17 611.315,344.17C632.132,344.17 648.176,368.892 651.792,383.607C651.792,383.607 648.113,393.168 640.59,402.849C640.128,402.97 639.874,403.025 639.874,403.025Z" style="fill:rgb(192,193,198);fill-rule:nonzero;"/>
            <path d="M582.697,397.071C581.769,394.585 581.135,391.887 580.862,389.039C580.761,387.995 580.713,386.962 580.713,385.943C580.709,379.246 582.831,373.161 586.236,368.723C587.938,366.501 589.951,364.691 592.174,363.379C594.399,362.068 596.828,361.246 599.445,360.994C600.002,360.94 600.554,360.914 601.103,360.914L601.174,360.914C597.426,362.443 594.297,365.559 591.706,369.702C588.355,370.349 585.414,372.574 583.528,375.929C581.803,378.998 581.058,382.827 581.431,386.71C581.665,389.148 582.323,391.473 583.341,393.53C583.111,394.705 582.896,395.887 582.697,397.071Z" style="fill:rgb(6,20,66);fill-rule:nonzero;"/>
            <path d="M581.088,409.98C578.568,406.871 576.53,403.238 575.111,399.234C575.383,388.094 577.694,369.913 586.829,357.452C587.269,357.156 587.717,356.873 588.174,356.603C591.331,354.738 594.896,353.524 598.693,353.161C599.5,353.083 600.304,353.045 601.103,353.045L601.111,353.045C604.956,353.045 608.676,353.934 612.07,355.524C615.469,357.115 618.548,359.401 621.188,362.209C624.701,365.949 627.449,370.616 629.141,375.885C624.426,368.287 617.983,361.668 609.475,360.136C608.471,359.956 607.5,359.869 606.56,359.869C604.636,359.869 602.844,360.233 601.174,360.914L601.103,360.914C600.554,360.914 600.002,360.94 599.445,360.994C596.828,361.246 594.399,362.068 592.174,363.379C589.951,364.691 587.938,366.501 586.236,368.723C582.831,373.161 580.709,379.246 580.713,385.943C580.713,386.962 580.761,387.995 580.862,389.039C581.135,391.887 581.769,394.585 582.697,397.071C581.967,401.411 581.441,405.787 581.088,409.98Z" style="fill:rgb(1,9,33);fill-rule:nonzero;"/>
            <path d="M583.341,393.53C582.323,391.473 581.665,389.148 581.431,386.71C581.058,382.827 581.803,378.998 583.528,375.929C585.414,372.574 588.355,370.349 591.706,369.702C587.794,375.955 585.102,384.544 583.341,393.53Z" style="fill:rgb(8,15,45);fill-rule:nonzero;"/>
            <path d="M580.162,359.741C586.94,346.743 601.567,336.503 616.857,337.847C639.156,340.375 652.866,365.55 655.861,385.625C656.026,387.249 655.582,388.579 654.8,389.579L654.84,389.618C651.519,394.078 644.428,400.358 640.079,404.041C639.29,404.709 638.154,403.827 638.599,402.895C641.598,396.619 643.595,390.148 644.737,385.855C643.264,380.806 641.14,375.687 638.727,371.019C633.731,361.628 626.308,351.128 615.56,349.622C604.69,348.526 594.353,355.481 588.609,364.66C579.012,380.543 578.103,400.187 578.431,418.691C578.489,419.446 578.002,420.162 577.237,420.354C576.39,420.567 575.53,420.052 575.318,419.205C573.69,412.728 572.869,406.2 572.544,399.551C571.981,385.973 573.642,372.118 580.162,359.741Z" style="fill:rgb(3,9,28);fill-rule:nonzero;"/>
            <path d="M648.789,297.225C649.579,300.309 650.614,304.887 651.707,309.967C653.348,317.593 655.131,326.381 656.502,333.254C657.187,336.691 657.769,339.651 658.18,341.75C658.386,342.8 658.549,343.634 658.66,344.206C658.771,344.778 658.83,345.085 658.83,345.086L663.156,344.249L658.75,344.249C658.751,354.374 658.308,366.735 657.864,376.536C657.642,381.438 657.42,385.703 657.253,388.741C657.17,390.26 657.101,391.472 657.052,392.303C657.004,393.135 656.977,393.58 656.977,393.581L656.96,393.847L660.292,449.374C660.329,450.003 660.349,450.633 660.349,451.261C660.349,453.87 660.02,456.45 659.344,458.931C657.173,466.873 651.237,481.86 634.889,498.923C618.536,515.979 591.711,535.139 547.602,551.134L549.104,555.276L548.364,550.933L548.41,551.206L548.365,550.933L548.364,550.933L548.41,551.206L548.365,550.933C548.191,550.962 542.233,551.936 532.028,551.936C517.526,551.936 494.467,549.971 467.182,540.57C439.895,531.165 408.373,514.344 376.834,484.506C375.066,482.834 372.278,482.911 370.606,484.678C368.933,486.445 369.01,489.234 370.778,490.906C403.245,521.633 435.938,539.13 464.312,548.901C492.69,558.677 516.737,560.747 532.028,560.747C543.141,560.747 549.636,559.654 549.843,559.619L550.233,559.553L550.605,559.418C595.751,543.054 623.838,523.186 641.25,505.02C658.666,486.861 665.349,470.435 667.845,461.247C668.738,457.97 669.16,454.61 669.16,451.261C669.16,450.455 669.135,449.65 669.087,448.846L665.772,393.587L661.374,393.85L665.771,394.12C665.772,394.104 666.219,386.807 666.666,376.934C667.113,367.058 667.561,354.619 667.562,344.249L667.562,343.828L667.482,343.413C667.48,343.405 665.77,334.559 663.65,324.105C662.589,318.877 661.426,313.248 660.321,308.113C659.214,302.973 658.17,298.344 657.326,295.042C656.723,292.684 654.323,291.262 651.966,291.865C649.608,292.468 648.186,294.868 648.789,297.225Z" style="fill:rgb(3,9,28);fill-rule:nonzero;"/>
            <path d="M346.842,419.326L370.765,427.565L393.465,435.374C392.881,433.336 392.364,431.255 391.901,429.151C385.149,398.972 389.313,363.253 389.313,363.253C409.216,341.28 427.334,307.72 427.334,307.72C427.036,329.098 428.81,348.703 428.81,348.703C463.262,327.908 501.437,287.971 501.437,287.971C498.981,308.909 498.981,342.767 498.981,342.767C540.494,325.838 564.031,292.861 564.031,292.861C562.918,316.476 562.918,334.749 562.918,334.749C592.315,320.716 612.813,291.309 612.813,291.309C632.638,304.669 663.379,318.26 663.379,318.26C666.947,274.159 643.333,240.963 643.333,240.963C643.333,240.963 638.74,238.881 630.336,236.15C602.195,227.008 531.363,210.597 447.974,240.963C424.25,249.609 406.065,263.035 392.133,278.719C342.492,334.616 346.842,419.326 346.842,419.326Z" style="fill:rgb(232,237,239);fill-rule:nonzero;"/>
            <path d="M346.842,419.326L370.765,427.565L393.465,435.374C392.881,433.336 392.364,431.255 391.901,429.151C385.149,398.972 389.313,363.253 389.313,363.253C409.216,341.28 427.334,307.72 427.334,307.72C427.036,329.098 428.81,348.703 428.81,348.703C463.262,327.908 501.437,287.971 501.437,287.971C498.981,308.909 498.981,342.767 498.981,342.767C540.494,325.838 564.031,292.861 564.031,292.861C562.918,316.476 562.918,334.749 562.918,334.749C592.315,320.716 612.813,291.309 612.813,291.309C632.638,304.669 663.379,318.26 663.379,318.26C666.947,274.159 643.333,240.963 643.333,240.963C643.333,240.963 638.74,238.881 630.336,236.15C633.079,243.617 635.766,252.45 637.76,262.275C637.76,262.275 615.489,247.197 606.347,236.733C606.347,236.733 601.005,252.99 587.645,268.586C587.645,268.586 584.969,244.311 582.964,234.057C582.964,234.057 557.565,263.905 533.951,275.712C533.951,275.712 531.726,250.545 533.951,224.706C533.951,224.706 487.724,269.104 456.786,286.33C456.786,286.33 450.496,259.158 447.974,240.963C447.974,240.963 415.449,283.367 395.844,299.404C395.844,299.404 393.928,290.758 392.133,278.719C339.71,335.636 346.842,419.326 346.842,419.326Z" style="fill:rgb(176,202,209);fill-rule:nonzero;"/>
            <path d="M643.331,240.964C657.343,256.388 665.26,276.977 667.689,297.541C668.95,306.498 668.036,315.846 667.26,324.825C661.005,322.083 654.534,319.087 648.466,316.147C635.367,309.738 622.609,303.096 610.35,294.96L616.427,293.826C602.736,312.214 585.49,328.494 564.813,338.721L558.49,341.992C558.476,333.163 558.614,322.535 558.853,313.681C559.042,306.672 559.301,299.666 559.628,292.659L567.614,295.426C554.617,312.32 538.092,326.555 519.742,337.346C511.871,342.128 503.027,345.818 494.561,349.477C494.626,328.727 494.861,308.157 497.057,287.454L504.619,291.009C482.084,313.764 458.348,335.46 431.09,352.477L425.037,356.189C424.243,347.024 423.473,337.538 423.196,328.391C422.933,321.494 422.842,314.583 422.924,307.656L431.206,309.81C422.884,324.802 413.796,339.173 403.521,352.891C400.06,357.446 396.428,361.899 392.577,366.215L393.687,363.767C393.084,369.535 392.739,375.572 392.565,381.496C392.236,393.348 392.655,405.27 394.216,416.999C395.033,422.87 396.205,428.643 397.736,434.275C399.126,439.836 390.958,442.223 389.233,436.582C382.718,412.07 382.664,386.465 385.08,361.384C403.997,340.374 418.568,314.98 431.941,290.162C431.808,305.535 431.387,322.966 432.486,338.215C432.684,341.586 432.916,344.998 433.202,348.306L426.538,344.933C456.617,326.112 482.751,301.127 507.253,275.628C504.378,297.704 503.426,320.488 503.389,342.764L497.319,338.685C503.454,336.021 509.55,333.216 515.297,329.738C529.801,321.305 542.927,310.38 554.161,297.93C558.555,293.233 565.198,283.816 569.104,278.612C568.188,296.938 567.383,316.442 567.32,334.745L561.017,330.769C562.999,329.681 566.145,328.22 568.028,326.987C574.949,322.921 581.443,318.033 587.433,312.655C596.51,304.533 604.779,295.292 611.714,285.277C628.35,296.659 646.787,305.858 665.16,314.231L658.988,317.906C659.051,311.395 659.253,304.905 658.606,298.411C658.306,293.711 657.574,288.476 656.736,283.84C654.079,269.01 649.413,254.826 643.331,240.964Z" style="fill:rgb(3,9,28);fill-rule:nonzero;"/>
            <path d="M392.865,365.862C384.286,376.366 371.784,383.491 360.086,389.9L358.41,384.875C353.926,369.906 353.746,352.974 358.867,338.169C359.697,353.13 362.311,367.773 366.751,382.035L360.505,379.569C367.571,375.749 374.515,371.317 380.521,366C382.406,364.301 384.297,362.503 385.851,360.532C389.507,356.038 396.22,361.118 392.865,365.862Z" style="fill:rgb(3,9,28);fill-rule:nonzero;"/>
            <path d="M422.428,177.774C422.428,177.774 427.626,165.597 444.704,159.508C444.704,159.508 435.2,170.052 431.933,179.557C431.933,179.557 445.447,180.448 454.654,183.418C454.654,183.418 436.091,186.536 427.329,186.091L417.824,198.417C417.824,198.417 417.527,189.952 417.082,183.121C417.082,183.121 406.687,183.715 392.727,188.021C392.727,188.021 405.957,175.296 422.428,177.774Z" style="fill:rgb(176,202,209);fill-rule:nonzero;"/>
            <path d="M376.942,521.87C284.301,536.28 202.624,411.719 202.624,411.719C321.362,388.544 377.175,420.388 377.175,420.388C377.175,420.388 395.535,424.486 402.677,432.759C424.305,457.848 446.624,511.031 376.942,521.87Z" style="fill:rgb(24,165,214);fill-rule:nonzero;"/>
            <path d="M346.006,442.444C346.006,442.444 297.937,424.925 227.018,425.6C226.047,425.61 225.519,426.751 226.151,427.488C238.738,442.176 324.661,538.128 392.922,503.703C395.815,502.245 396.762,498.562 394.963,495.869C393.849,494.202 391.908,493.271 389.916,493.492C384.911,494.048 374.269,493.963 361.214,486.519C342.955,476.108 338.7,452.261 346.006,442.444Z" style="fill:rgb(22,107,183);fill-rule:nonzero;"/>
            <path d="M404.851,435.374C335.863,412.315 215.889,411.717 203.64,411.717C202.971,411.717 202.624,411.719 202.624,411.719C234.302,405.536 261.504,403.269 284.359,403.269C347.173,403.269 377.175,420.388 377.175,420.388C377.175,420.388 397.708,427.102 404.851,435.374Z" style="fill:rgb(163,219,239);fill-rule:nonzero;"/>
            <path d="M231.363,425.222C255.884,422.286 280.531,425.012 304.895,428.237C317.128,430.095 329.216,432.781 341.041,436.472C352.901,440.25 365.044,444.75 373.806,454.014C370.563,453.629 367.575,452.893 364.578,452.209C355.747,450.109 347.311,447.026 338.614,444.526C332.845,442.857 327.012,441.396 321.169,439.938C303.51,435.749 285.713,432.252 267.662,429.932C255.604,428.43 243.538,427.091 231.363,425.222Z" style="fill:rgb(3,9,28);fill-rule:nonzero;"/>
            <path d="M348.02,443.759C345.07,455.159 345.686,468.515 353.268,478.008C360.994,487.498 373.003,490.948 384.679,493.642C376.644,494.303 368.078,493.203 360.525,489.875C341.4,481.855 335.122,460.425 339.541,441.364C341.208,435.634 349.596,437.983 348.02,443.759Z" style="fill:rgb(3,9,28);fill-rule:nonzero;"/>
            <path d="M281.513,431.401C281.772,440.207 284.451,448.909 288.855,456.558C293.465,464.477 300.247,470.933 308.282,475.402C295.036,470.083 284.422,459.093 278.995,445.898C277.102,441.337 275.638,436.622 275.003,431.686C274.69,427.115 281.421,426.806 281.513,431.401Z" style="fill:rgb(3,9,28);fill-rule:nonzero;"/>
            <path d="M402.677,432.759C389.983,429.718 378.33,424.858 366.157,420.516C346.185,413.721 325.353,409.376 304.361,407.52C272.81,404.567 240.856,407.429 210.006,414.495L203.814,415.962L206.305,409.305C225.36,436.11 247.77,461.025 273.404,481.692C307.113,509.001 350.072,528.544 393.525,514.489C398.626,512.867 403.567,510.763 407.891,507.911C412.459,504.671 415.838,501.79 420.278,497.921C421.782,510.288 405.08,517.456 395.669,520.909C326.41,544.776 261.131,491.626 219.286,441.392C210.738,431.107 202.806,420.33 195.57,409.001L201.427,407.48C251.539,391.613 306.788,391.294 356.853,407.607C373.288,413.269 391.07,419.068 402.677,432.759Z" style="fill:rgb(3,9,28);fill-rule:nonzero;"/>
            <path d="M771.334,440.999C770.798,442.303 770.165,443.53 769.444,444.678C759.292,461.147 732.971,462.217 724.599,453.997L735.453,443.766C735.453,443.766 744.637,442.645 743.571,434.32C743.571,434.32 743.438,430.976 740.09,427.261C738.906,425.946 737.97,424.469 737.299,422.895C735.43,418.544 735.611,413.511 738.317,409.405C738.788,408.685 739.336,407.967 739.952,407.252C745.301,401.076 754.628,400.526 760.904,405.774C769.032,412.559 778.171,424.527 771.334,440.999Z" style="fill:rgb(255,197,11);fill-rule:nonzero;"/>
            <path d="M769.444,444.678C759.292,461.147 732.971,462.217 724.599,453.997L735.453,443.767C735.453,443.767 744.637,442.645 743.571,434.32C743.571,434.32 743.438,430.975 740.09,427.261C738.906,425.946 737.97,424.469 737.299,422.895C737.71,422.515 737.941,422.31 737.941,422.31L746.44,431.337C746.44,431.337 744.193,462.223 769.444,444.678Z" style="fill:rgb(237,137,17);fill-rule:nonzero;"/>
            <path d="M759.251,433.861C756.189,433.861 753.168,431.719 752.365,428.361C751.636,425.317 750.147,421.596 747.124,418.329C743.091,413.97 746.441,409.442 751.462,409.442C754.528,409.442 758.217,411.128 761.231,415.57C766.472,423.294 766.949,429.215 763.451,432.274C762.203,433.366 760.722,433.861 759.251,433.861Z" style="fill:rgb(255,232,157);fill-rule:nonzero;"/>
            <path d="M743.573,434.32L747.975,434.141C747.96,433.794 747.87,432.528 747.249,430.736C746.63,428.949 745.463,426.636 743.366,424.314C741.47,422.216 740.465,419.539 740.469,416.987C740.473,415.159 740.96,413.409 741.998,411.828C742.366,411.269 742.79,410.705 743.28,410.139C744.308,408.954 745.518,408.083 746.847,407.493C748.175,406.904 749.623,406.603 751.09,406.603C753.549,406.605 756.027,407.441 758.075,409.152C760.711,411.347 763.602,414.682 765.731,418.513C767.876,422.35 769.254,426.649 769.247,430.868C769.243,433.607 768.694,436.33 767.368,439.085C766.031,441.85 764.335,444.18 762.375,446.152C759.437,449.107 755.883,451.258 752.097,452.673C748.317,454.089 744.313,454.752 740.613,454.75C737.678,454.752 734.938,454.332 732.69,453.61C730.437,452.895 728.706,451.869 727.678,450.85L724.593,453.995L727.615,457.201L738.471,446.969L735.449,443.763L735.982,448.137C736.139,448.117 736.842,448.025 737.868,447.752C738.637,447.546 739.588,447.239 740.63,446.761C742.182,446.042 743.984,444.935 745.497,443.08C746.248,442.157 746.908,441.045 747.363,439.778C747.82,438.512 748.066,437.103 748.065,435.625C748.065,435.014 748.024,434.392 747.943,433.761L743.573,434.32L747.975,434.141L743.573,434.32L739.203,434.878C739.239,435.16 739.253,435.407 739.253,435.625C739.252,436.095 739.189,436.428 739.105,436.696C738.955,437.156 738.74,437.474 738.378,437.827C737.85,438.347 736.924,438.822 736.124,439.08C735.728,439.213 735.374,439.299 735.145,439.346C735.031,439.37 734.948,439.384 734.906,439.391L734.876,439.395L735.179,441.554L734.916,439.39L734.876,439.395L735.179,441.554L734.916,439.39L733.48,439.565L718.237,453.931L721.508,457.14C723.827,459.403 726.759,460.957 730.005,462.002C733.256,463.04 736.853,463.559 740.613,463.561C746.923,463.556 753.719,462.094 759.937,458.785C763.043,457.13 765.997,455.005 768.622,452.366C771.246,449.729 773.536,446.577 775.303,442.915C777.227,438.937 778.063,434.819 778.059,430.868C778.052,424.748 776.124,419.064 773.427,414.221C770.714,409.371 767.229,405.327 763.725,402.391C760.059,399.326 755.554,397.79 751.09,397.792C748.422,397.792 745.757,398.338 743.277,399.437C740.798,400.534 738.505,402.192 736.62,404.37C735.876,405.228 735.218,406.102 734.64,406.98C732.615,410.048 731.654,413.551 731.658,416.987C731.662,421.805 733.497,426.521 736.821,430.214C738.068,431.6 738.64,432.815 738.925,433.628C739.066,434.034 739.132,434.337 739.159,434.497L739.178,434.623L741.16,434.418L739.171,434.498L739.178,434.623L741.16,434.418L739.171,434.498L739.178,434.688L739.203,434.878L743.573,434.32Z" style="fill:rgb(3,9,28);fill-rule:nonzero;"/>
        </g>
    </g>
</svg>
