<?xml version="1.0" encoding="UTF-8" standalone="no"?>
<!DOCTYPE svg PUBLIC "-//W3C//DTD SVG 1.1//EN" "http://www.w3.org/Graphics/SVG/1.1/DTD/svg11.dtd">
<svg width="100%" height="100%" viewBox="0 0 601 458" version="1.1" xmlns="http://www.w3.org/2000/svg" xmlns:xlink="http://www.w3.org/1999/xlink" xml:space="preserve" xmlns:serif="http://www.serif.com/" style="fill-rule:evenodd;clip-rule:evenodd;stroke-linejoin:round;stroke-miterlimit:2;">
    <g transform="matrix(1,0,0,1,-123.891998,-102.513977)">
        <g>
            <path d="M176.303,327.347C176.303,327.347 191.585,347.033 225.376,334.705C225.016,335.37 213.298,356.636 210.693,392.269C210.693,392.269 222.89,385.249 229.801,381.139C229.801,381.139 231.763,401.414 238.576,421.404C238.576,421.404 262.414,425.318 297.273,428.315C303.878,428.871 310.876,429.416 318.19,429.885C363.6,432.795 420.913,433.165 469.189,423.116C566.255,402.918 575.324,405.926 572.163,401.392C572.163,401.392 613.387,362.326 616.319,312.937C616.319,312.937 630.347,321.734 636.56,332.187C636.56,332.034 636.539,292.892 613.812,256.508C613.812,256.508 633.367,254.447 651.592,231.23C651.592,231.23 626.314,224.178 606.04,205.659C604.906,204.623 603.795,203.631 602.705,202.694L602.672,202.65C584.458,186.78 573.994,183.902 573.994,183.902C573.994,183.902 596.045,172.729 594.868,146.286C594.868,146.286 565.47,145.992 524.616,139.811C483.763,133.642 463.478,133.053 432.903,139.811C432.903,139.811 441.165,126.884 437.623,108.07C437.623,108.07 399.984,119.242 371.47,131.287C342.966,143.343 334.736,163.628 334.736,163.628C334.736,163.628 295.638,159.213 250.664,167.148C250.664,167.148 251.111,180.817 279.767,193.167C279.767,193.167 276.933,193.875 271.974,196.077L271.952,196.077C264.354,199.457 251.786,206.324 236.853,219.469C212.165,241.226 176.303,262.383 176.303,262.383C176.303,262.383 191.585,274.733 223.326,272.084C223.326,272.084 215.686,301.187 176.303,327.347Z" style="fill:rgb(239,235,223);fill-rule:nonzero;"/>
            <path d="M318.19,429.885C363.6,432.795 420.913,433.165 469.189,423.116C566.255,402.918 575.324,405.926 572.163,401.392C572.163,401.392 613.387,362.326 616.319,312.937C616.319,312.937 630.347,321.734 636.56,332.187C636.56,332.034 636.539,292.892 613.812,256.508C613.812,256.508 633.367,254.447 651.592,231.23C651.592,231.23 626.314,224.178 606.04,205.659C604.906,204.623 603.795,203.631 602.705,202.694C603.598,203.904 646.174,223.687 651.592,231.23C651.592,231.23 621.32,243.646 575.389,214.989C575.389,214.989 583.553,239.678 583.553,253.347C583.553,253.347 569.917,238.795 542.351,213.452C542.612,213.888 548.498,223.448 554.156,238.882C562.472,241.585 567.018,243.645 567.018,243.645C567.018,243.645 590.387,276.498 586.856,320.142C586.856,320.142 556.434,306.692 536.814,293.47C536.814,293.47 516.528,322.573 487.436,336.46C487.436,336.46 487.436,318.377 488.537,295.007C488.537,295.007 465.243,327.642 424.161,344.395C424.161,344.395 424.161,310.888 426.592,290.167C426.592,290.167 388.812,329.691 354.716,350.27C354.716,350.27 352.961,330.868 353.256,309.711C353.256,309.711 335.325,342.924 315.629,364.669C315.629,364.669 311.508,400.019 318.19,429.885Z" style="fill:rgb(204,190,158);fill-rule:nonzero;"/>
            <path d="M176.303,327.347C176.303,327.347 191.585,347.033 225.376,334.705C225.016,335.37 213.298,356.636 210.693,392.269C210.693,392.269 222.89,385.249 229.801,381.139C229.801,381.139 231.763,401.414 238.576,421.404C238.576,421.404 262.414,425.318 297.273,428.315L273.598,420.162C273.598,420.162 269.292,336.329 318.419,281.011C316.413,267.659 314.539,250.087 315.629,235.634C315.629,235.634 288.291,276.793 271.832,295.89C271.832,295.89 269.881,278.014 273.5,259.32C273.5,259.32 255.667,275.91 243.611,284.434C243.611,284.434 236.919,224.025 290.09,193.167C290.09,193.167 283.31,194.246 271.974,196.077L271.952,196.077C264.354,199.457 251.786,206.324 236.853,219.469C212.165,241.226 176.303,262.383 176.303,262.383C176.303,262.383 191.585,274.733 223.326,272.084C223.326,272.084 215.686,301.187 176.303,327.347Z" style="fill:rgb(204,190,158);fill-rule:nonzero;"/>
            <path d="M575.162,404.557C575.318,404.404 585.826,394.44 596.764,378.111C602.231,369.944 607.807,360.18 612.226,349.226C616.643,338.273 619.905,326.118 620.675,313.201L616.323,312.942L614.006,316.635L614.007,316.636C614.115,316.703 617.512,318.858 621.543,322.177C623.557,323.835 625.729,325.784 627.719,327.881C629.711,329.975 631.516,332.223 632.816,334.414L640.923,348.04L640.923,332.184C640.922,331.895 640.906,321.804 637.988,307.08C635.065,292.359 629.246,272.985 617.513,254.196L613.815,256.506L614.271,260.842C614.658,260.801 620.035,260.186 627.747,256.51C635.456,252.841 645.485,246.082 655.025,233.92L659.056,228.783L652.767,227.028L652.295,228.719L652.77,227.029L652.767,227.028L652.295,228.719L652.77,227.029C652.741,227.022 646.587,225.286 638.043,221.332C629.498,217.383 618.574,211.206 608.975,202.436C588.267,183.522 575.876,179.895 575.152,179.7L573.996,183.904L575.967,187.793C576.271,187.631 581.924,184.756 587.686,178.408C590.561,175.232 593.459,171.174 595.641,166.156C597.825,161.144 599.274,155.17 599.271,148.311C599.271,147.579 599.255,146.838 599.221,146.088L599.039,141.962L594.909,141.92L594.837,141.92C593.216,141.899 564.572,141.442 525.266,135.503C504.294,132.335 488.566,130.603 473.952,130.601C459.992,130.598 447.115,132.203 431.966,135.557L432.907,139.814L436.583,142.16C436.719,141.944 438.272,139.477 439.809,135.204C441.344,130.933 442.864,124.845 442.865,117.444C442.865,114.271 442.584,110.86 441.907,107.262L441.014,102.514L436.382,103.889C436.351,103.898 426.904,106.702 413.869,111.021C400.831,115.342 384.217,121.171 369.777,127.274C354.846,133.581 345.091,142.124 339.098,149.142C333.098,156.164 330.83,161.649 330.693,161.983L334.733,163.622L335.221,159.29C335.096,159.276 324.114,158.042 307.088,158.041C291.763,158.042 271.542,159.039 249.909,162.856L246.188,163.513L246.31,167.29C246.321,167.664 246.413,168.945 247.046,170.851C247.989,173.713 250.17,177.957 254.906,182.613C259.642,187.277 266.901,192.368 278.042,197.167L279.767,193.163L278.71,188.933C278.147,189.069 259.234,193.936 233.97,216.199C221.88,226.854 206.86,237.51 194.905,245.453C188.925,249.427 183.708,252.729 179.993,255.033C178.135,256.185 176.652,257.087 175.637,257.701C175.13,258.007 174.739,258.241 174.476,258.398C174.345,258.476 174.246,258.535 174.18,258.574L174.086,258.63L168.671,261.826L173.562,265.777C173.847,266.007 177.338,268.767 184.153,271.473C190.965,274.18 201.105,276.818 214.576,276.816C217.463,276.816 220.502,276.696 223.693,276.43L223.331,272.085L219.114,270.977L220.749,271.406L219.118,270.964L219.114,270.977L220.749,271.406L219.118,270.964C219.096,271.044 217.201,277.981 210.618,288.009C204.03,298.038 192.768,311.171 173.889,323.713L169.979,326.31L172.857,330.018C173.091,330.314 175.645,333.545 180.829,336.759C186,339.972 193.858,343.128 204.309,343.121C210.855,343.122 218.39,341.892 226.884,338.788L225.389,334.693L221.591,332.552C221.372,332.946 209.056,354.907 206.344,391.946L205.745,400.138L212.865,396.044C212.875,396.038 225.067,389.028 232.03,384.88L229.798,381.135L225.459,381.556C225.467,381.642 225.971,386.818 227.34,394.536C228.71,402.255 230.94,412.512 234.444,422.809C235.22,425.089 237.697,426.307 239.976,425.531C242.256,424.755 243.475,422.278 242.699,419.999C239.397,410.308 237.24,400.431 235.926,393.013C235.268,389.303 234.818,386.206 234.535,384.048C234.393,382.969 234.293,382.125 234.228,381.556C234.196,381.271 234.173,381.055 234.158,380.913L234.142,380.756L234.138,380.714L233.474,373.87L227.567,377.389C224.145,379.428 219.374,382.207 215.468,384.47C213.515,385.602 211.777,386.606 210.528,387.327C209.278,388.048 208.521,388.483 208.519,388.484L210.692,392.264L215.04,392.582C216.332,374.903 219.92,360.873 223.162,351.305C224.783,346.521 226.317,342.854 227.432,340.407C227.989,339.184 228.442,338.265 228.749,337.666C228.902,337.366 229.018,337.145 229.093,337.006L229.173,336.859L229.189,336.831L229.19,336.829L226.96,335.579L229.187,336.834L229.19,336.829L226.96,335.579L229.187,336.834L234.987,326.546L223.893,330.597C216.255,333.386 209.765,334.399 204.309,334.401C199.956,334.4 196.252,333.755 193.122,332.805C188.432,331.38 185.02,329.256 182.8,327.521C181.691,326.655 180.884,325.887 180.376,325.363C180.122,325.101 179.942,324.9 179.837,324.779L179.736,324.658L179.727,324.647L177.8,326.182L179.746,324.671L179.727,324.647L177.8,326.182L179.746,324.671L176.302,327.344L178.714,330.976C198.923,317.557 211.119,303.278 218.245,292.276C225.376,281.272 227.452,273.558 227.548,273.192L229.115,267.227L222.969,267.74C220.016,267.986 217.22,268.096 214.576,268.096C202.243,268.094 193.245,265.697 187.371,263.368C184.435,262.203 182.282,261.052 180.898,260.221C180.206,259.805 179.706,259.469 179.397,259.252C179.242,259.143 179.136,259.064 179.076,259.019L179.023,258.978L179.012,258.992L179.023,258.978L179.012,258.992L179.023,258.978L177.224,261.242L179.041,258.993L179.023,258.978L177.224,261.242L179.041,258.993L176.302,262.385L178.518,266.14C178.565,266.112 187.588,260.786 199.731,252.715C211.879,244.639 227.134,233.838 239.734,222.742C251.794,212.119 262.205,205.752 269.533,202.052C273.198,200.203 276.091,199.02 278.033,198.309C279.004,197.953 279.737,197.715 280.21,197.571C280.447,197.499 280.618,197.45 280.721,197.421L280.825,197.393L280.817,197.362L280.824,197.393L280.825,197.393L280.817,197.362L280.824,197.393L293.342,194.263L281.492,189.159C274.591,186.186 269.488,183.176 265.726,180.387C260.081,176.199 257.452,172.538 256.186,170.113C255.554,168.898 255.263,167.984 255.129,167.442C255.061,167.17 255.033,166.992 255.023,166.917L255.018,166.88L255.018,166.878L252.671,167.085L255.025,167.009L255.018,166.878L252.671,167.085L255.025,167.009L250.667,167.15L251.425,171.444C272.397,167.741 292.144,166.76 307.088,166.761C315.39,166.761 322.211,167.063 326.94,167.363C329.305,167.513 331.146,167.663 332.389,167.774C333.01,167.83 333.482,167.876 333.794,167.908C333.95,167.924 334.067,167.936 334.142,167.944L334.224,167.953L334.244,167.955L337.53,168.326L338.773,165.262L336.61,164.384L338.766,165.279L338.773,165.262L336.61,164.384L338.766,165.279C338.766,165.279 338.794,165.212 338.856,165.074C339.326,164.036 341.67,159.216 347.001,153.363C352.337,147.508 360.639,140.607 373.172,135.306C387.244,129.357 403.705,123.575 416.612,119.299C423.067,117.159 428.638,115.395 432.591,114.166C434.567,113.551 436.139,113.071 437.215,112.745C437.753,112.581 438.167,112.457 438.445,112.373C438.724,112.29 438.862,112.249 438.863,112.248L437.623,108.069L433.338,108.875C433.91,111.919 434.145,114.784 434.145,117.444C434.145,123.642 432.867,128.739 431.603,132.254C430.972,134.01 430.345,135.367 429.893,136.259C429.667,136.705 429.485,137.034 429.367,137.238C429.309,137.34 429.266,137.411 429.243,137.45L429.222,137.483L430.622,138.355L429.232,137.468L429.222,137.483L430.622,138.355L429.232,137.468L423.566,146.345L433.849,144.071C448.575,140.817 460.661,139.325 473.952,139.321C487.856,139.32 503.152,140.979 523.964,144.125C565.104,150.339 594.678,150.638 594.822,150.64L594.866,146.28L590.51,146.473C590.537,147.097 590.551,147.709 590.551,148.311C590.548,153.95 589.383,158.674 587.645,162.679C585.041,168.675 581.084,173.063 577.761,175.936C576.103,177.37 574.613,178.421 573.564,179.097C573.04,179.435 572.627,179.679 572.359,179.831C572.224,179.907 572.127,179.961 572.07,179.991L572.016,180.02L572.012,180.021L573.224,182.379L572.026,180.015L572.012,180.021L573.224,182.379L572.026,180.015L561.959,185.116L572.84,188.108L573.405,186.055L572.807,188.099L572.84,188.108L573.405,186.055L572.807,188.099C572.819,188.106 583.861,191.319 603.095,208.875C613.702,218.553 625.462,225.134 634.597,229.346C643.734,233.553 650.258,235.38 650.423,235.427L651.595,231.228L648.165,228.536C639.481,239.594 630.621,245.475 623.995,248.639C620.682,250.218 617.929,251.111 616.049,251.604C615.109,251.851 614.388,251.998 613.926,252.08C613.695,252.121 613.529,252.146 613.433,252.16L613.341,252.172L613.336,252.173L613.638,254.827L613.359,252.17L613.336,252.173L613.638,254.827L613.359,252.17L606.421,252.9L610.117,258.816C621.11,276.403 626.664,294.791 629.434,308.776C630.821,315.767 631.514,321.653 631.859,325.774C632.032,327.834 632.118,329.454 632.161,330.549C632.182,331.097 632.192,331.514 632.198,331.79C632.2,331.928 632.202,332.031 632.202,332.097L632.203,332.169L632.203,332.184L636.563,332.184L640.31,329.955C638.523,326.957 636.282,324.225 633.933,321.761C630.408,318.07 626.63,314.986 623.706,312.789C620.784,310.595 618.717,309.297 618.64,309.248L612.408,305.339L611.971,312.683C611.271,324.456 608.278,335.703 604.139,345.964C597.937,361.354 589.152,374.498 581.924,383.742C578.312,388.365 575.093,392.015 572.791,394.495C571.64,395.735 570.718,396.682 570.092,397.312C569.779,397.627 569.539,397.863 569.381,398.017L569.208,398.185L569.169,398.222L569.162,398.229L569.852,398.954L569.163,398.228L569.162,398.229L569.852,398.954L569.163,398.228C567.416,399.884 567.342,402.644 568.998,404.392C570.655,406.139 573.414,406.213 575.162,404.557Z" style="fill:rgb(25,3,10);fill-rule:nonzero;"/>
            <path d="M605.552,476.441C695.201,452.525 719.465,307.127 719.465,307.127C602.685,333.52 564.847,384.63 564.847,384.63C564.847,384.63 549.854,395.668 546.687,406.009C537.112,437.361 538.121,494.432 605.552,476.441Z" style="fill:rgb(211,47,26);fill-rule:nonzero;"/>
            <path d="M601.875,391.309C601.875,391.309 638.417,356.262 702.912,328.574C703.795,328.195 704.729,329.018 704.451,329.938C698.912,348.262 659.387,469.446 583.831,465.509C580.629,465.342 578.302,462.385 578.857,459.228C579.2,457.274 580.587,455.656 582.479,455.062C587.234,453.568 596.837,449.244 605.689,437.294C618.071,420.579 612.409,397.285 601.875,391.309Z" style="fill:rgb(147,17,7);fill-rule:nonzero;"/>
            <path d="M585.719,378.809C585.836,376.25 585.955,373.501 586.066,370.652C598.415,360.558 611.702,351.601 625.654,343.921C649.48,330.644 675.342,321.23 701.91,315.113C676.233,327.116 627,351.346 585.719,378.809Z" style="fill:rgb(237,172,163);fill-rule:nonzero;"/>
            <path d="M698.827,330.823C688.546,337.373 678.153,343.401 667.833,349.573C652.411,358.877 637.689,369.146 623.368,379.986C618.658,383.638 613.959,387.289 609.4,391.102C602.521,396.837 596.112,402.995 588.952,408.422C586.511,410.236 584.099,412.095 581.315,413.738C585.555,401.851 594.754,392.932 603.988,384.777C613.218,376.715 623.112,369.46 633.438,362.896C654.215,350.252 675.448,337.949 698.827,330.823Z" style="fill:rgb(25,3,10);fill-rule:nonzero;"/>
            <path d="M607.299,388.609C620.296,406.116 621.658,429.573 604.079,444.382C599.091,448.719 593.323,451.853 587.282,453.965C596.782,446.875 606.28,438.944 609.49,427.272C612.413,416.293 608.272,404.706 601.797,395.751C601.386,395.18 600.899,394.536 600.552,394.134C596.874,389.548 603.507,384.086 607.299,388.609Z" style="fill:rgb(25,3,10);fill-rule:nonzero;"/>
            <path d="M661.894,354.122C667.044,372.369 662.594,393.347 649.19,406.961C654.683,399.708 658.249,391.154 659.264,382.143C660.201,373.459 659.154,364.508 655.875,356.431C654.118,352.23 660.378,349.81 661.894,354.122Z" style="fill:rgb(25,3,10);fill-rule:nonzero;"/>
            <path d="M546.687,406.009C551.737,388.978 565.527,376.634 578.15,364.945C616.981,330.194 667.143,308.437 718.857,302.809L724.769,301.85C722.731,315.003 719.855,327.919 716.216,340.648C698.383,402.822 660.439,477.041 588.21,483.044C578.243,483.678 560.345,483.833 556.749,472.046C562.308,473.782 566.522,475.044 571.954,476.151C577.008,477.007 582.322,476.94 587.589,476.375C632.566,471.753 663.646,436.931 683.286,398.739C698.255,369.795 708.607,338.287 715.169,306.409L720.08,311.443L713.888,312.586C683.13,318.497 653.048,328.656 625.654,343.921C607.383,353.978 590.252,366.226 574.875,380.349C565.584,389.14 556.972,398.189 546.687,406.009Z" style="fill:rgb(25,3,10);fill-rule:nonzero;"/>
            <path d="M279.767,366.141L294.766,455.096L300.281,487.83C386.643,569.548 473.767,554.702 473.767,554.702C584.436,514.578 588.404,453.734 588.404,453.734L584.872,394.95C584.872,394.95 586.638,366.141 586.638,345.867C586.638,345.867 579.88,310.888 576.643,298.244C576.643,298.244 574.779,296.533 571.149,293.819C553.959,280.935 497.224,245.607 413.217,265.031C311.508,288.543 279.767,366.141 279.767,366.141Z" style="fill:rgb(211,47,26);fill-rule:nonzero;"/>
            <path d="M279.767,365.283L294.766,454.239L311.29,459.929C310.713,457.913 310.2,455.853 309.742,453.77C303.061,423.904 307.181,388.555 307.181,388.555C326.877,366.81 344.808,333.597 344.808,333.597C344.514,354.754 346.269,374.156 346.269,374.156C380.364,353.577 418.144,314.053 418.144,314.053C415.713,334.774 415.713,368.281 415.713,368.281C456.796,351.528 480.089,318.893 480.089,318.893C478.988,342.262 478.988,360.346 478.988,360.346C508.081,346.459 528.366,317.356 528.366,317.356C547.986,330.578 578.408,344.028 578.408,344.028C580.021,324.037 575.999,306.303 571.149,292.961C553.959,280.077 497.224,244.75 413.217,264.174C311.508,287.686 279.767,365.283 279.767,365.283Z" style="fill:rgb(147,17,7);fill-rule:nonzero;"/>
            <path d="M389.463,463.531C474.997,492.725 535.785,457.264 535.785,457.264C535.785,457.264 529.317,518.109 464.211,520.461C399.105,522.812 389.463,463.531 389.463,463.531Z" style="fill:rgb(63,7,0);fill-rule:nonzero;"/>
            <path d="M496.861,510.819C496.861,510.819 483.701,497.993 453.68,496.49C423.658,494.986 409.433,501.097 409.433,501.097C409.433,501.097 448.333,538.784 496.861,510.819Z" style="fill:rgb(197,82,61);fill-rule:nonzero;"/>
            <path d="M466.875,476.419C486.947,475.128 503.629,473.626 515.623,468.486C515.623,468.486 516.021,479.948 507.473,487.224C505.951,488.519 503.609,488.416 502.259,486.983L498.124,479.971C498.124,479.971 494.322,484.048 485.493,486.407C473.779,489.536 461.511,490.405 449.472,488.958C440.399,487.867 436.398,483.498 436.398,483.498L432.955,491.891C431.82,493.5 429.517,493.932 427.828,492.864C418.339,486.866 417.139,474.046 417.139,474.046C429.737,477.444 446.822,477.97 466.875,476.419Z" style="fill:white;fill-rule:nonzero;"/>
            <path d="M389.463,463.531L388.055,467.657C413.469,476.333 436.802,479.421 457.082,479.419C481.72,479.419 501.85,474.872 515.859,470.307C529.869,465.74 537.766,461.155 537.982,461.03L535.785,457.264L531.449,456.803L533.109,456.98L531.45,456.796L531.449,456.803L533.109,456.98L531.45,456.796C531.446,456.839 531.033,460.525 529.451,466.007C527.084,474.242 522.075,486.451 512.099,496.642C507.107,501.746 500.883,506.373 493.028,509.857C485.171,513.337 475.665,515.682 464.053,516.104C462.839,516.147 461.646,516.169 460.475,516.169C445.707,516.161 434.357,512.786 425.461,507.817C418.791,504.085 413.49,499.429 409.259,494.504C402.914,487.124 399.002,479.124 396.707,472.991C395.559,469.927 394.814,467.333 394.362,465.533C394.136,464.633 393.982,463.931 393.888,463.467C393.841,463.235 393.808,463.063 393.789,462.955L393.769,462.843L393.765,462.824L393.671,462.84L393.765,462.824L393.671,462.84L393.765,462.824L390.866,463.303L393.767,462.831L393.765,462.824L390.866,463.303L393.767,462.831L389.463,463.531L388.055,467.657L389.463,463.531L385.16,464.231C385.191,464.42 385.818,468.213 387.752,473.852C390.658,482.299 396.497,494.964 407.89,505.673C413.582,511.019 420.672,515.85 429.381,519.319C438.088,522.79 448.397,524.89 460.475,524.888C461.752,524.888 463.05,524.865 464.368,524.817C481.317,524.213 494.741,519.748 505.154,513.302C512.966,508.474 519.073,502.56 523.806,496.45C530.91,487.278 534.951,477.679 537.25,470.351C539.545,463.02 540.096,457.939 540.12,457.725C540.294,456.093 539.531,454.495 538.153,453.604C536.776,452.712 535.005,452.671 533.588,453.498L533.586,453.499C533.334,453.645 525.795,457.956 512.529,462.219C499.261,466.484 480.274,470.7 457.082,470.699C437.683,470.698 415.341,467.755 390.871,459.405C389.424,458.911 387.817,459.214 386.649,460.201C385.481,461.188 384.914,462.721 385.16,464.231L389.463,463.531Z" style="fill:rgb(25,3,10);fill-rule:nonzero;"/>
            <path d="M467.289,433.323C465.624,428.845 466.898,423.97 469.523,420.125C474.106,413.479 483.179,411.368 490.751,412.855C501.402,414.54 513.357,426.86 504.396,437.152C503.429,438.091 500.122,441.119 499.123,438.985C499.023,438.725 499.018,438.453 499.092,438.206C500.197,434.121 501.916,430.463 499.197,427.214C496.704,424.25 492.986,422.088 489.119,421.415C485.152,420.657 480.986,421.452 477.64,423.286C476.865,423.722 476.249,424.212 475.658,424.846C473.548,427.111 472.406,430.203 471.127,433L470.769,433.618C470.018,435.023 467.787,434.813 467.289,433.323Z" style="fill:rgb(25,3,10);fill-rule:nonzero;"/>
            <path d="M489.254,363.224C496.633,347.391 509.691,335.549 526.763,331.285C538.464,328.098 550.907,327.682 562.995,327.467C565.117,327.469 567.257,327.433 569.427,327.332C570.98,327.328 572.237,326.025 572.159,324.469C572.108,323.355 571.393,322.427 570.416,322.047C568.345,321.245 566.245,320.507 564.125,319.807C544.264,313.789 521.209,313.589 503.307,325.363C491.65,333.082 483.48,346.75 484.161,360.885C484.19,361.501 484.248,362.059 484.338,362.771C484.75,365.457 488.305,365.708 489.254,363.224Z" style="fill:rgb(25,3,10);fill-rule:nonzero;"/>
            <path d="M432.38,365.585C418.324,352.871 399.596,345.735 379.373,347.059C365.411,347.716 351.693,351.238 338.44,354.838C336.128,355.508 333.782,356.148 331.379,356.735C329.686,357.219 327.821,356.378 327.314,354.876C326.947,353.801 327.374,352.695 328.294,352.027C330.246,350.613 332.255,349.251 334.298,347.92C353.655,335.952 378.703,328.506 402.684,334.052C418.319,337.714 432.414,348.122 437.042,361.76C437.243,362.354 437.392,362.903 437.564,363.608C438.136,366.287 434.357,367.645 432.38,365.585Z" style="fill:rgb(25,3,10);fill-rule:nonzero;"/>
            <path d="M335.761,428.162L348.111,436.043C350.661,437.449 353.19,438.703 355.708,439.837C398.033,458.803 434.887,440.382 443.454,435.466C443.955,435.171 444.37,434.931 444.664,434.746C445.1,434.485 445.329,434.332 445.329,434.332C445.329,434.201 445.318,434.07 445.318,433.929C444.326,402.7 430.821,363.361 389.466,364.898C347.926,366.435 335.761,428.162 335.761,428.162Z" style="fill:white;fill-rule:nonzero;"/>
            <path d="M425.595,404.694C426.538,414.52 423.517,423.771 417.902,430.683C412.551,437.265 404.846,441.736 395.975,442.588C387.093,443.44 378.679,440.516 372.173,435.071C365.347,429.353 360.622,420.845 359.679,411.02C357.839,391.847 371.103,374.883 389.311,373.136C407.507,371.39 423.755,385.522 425.595,404.694Z" style="fill:rgb(112,46,1);fill-rule:nonzero;"/>
            <path d="M417.803,427.37C417.909,428.481 417.939,429.589 417.902,430.683C412.551,437.265 404.846,441.736 395.975,442.588C387.093,443.44 378.679,440.516 372.173,435.071C371.929,434.004 371.748,432.911 371.641,431.8C370.352,418.37 379.639,406.494 392.394,405.27C405.138,404.047 416.514,413.941 417.803,427.37Z" style="fill:rgb(191,134,19);fill-rule:nonzero;"/>
            <path d="M425.597,404.699L421.721,405.071C421.824,406.14 421.874,407.201 421.874,408.25C421.875,416.151 419.029,423.428 414.32,428.893C409.603,434.358 403.086,437.99 395.599,438.712C394.702,438.798 393.811,438.84 392.929,438.84C385.514,438.839 378.593,435.868 373.282,430.841C367.977,425.813 364.333,418.76 363.555,410.652C363.452,409.583 363.402,408.522 363.402,407.473C363.401,399.572 366.247,392.295 370.956,386.83C375.673,381.365 382.19,377.733 389.678,377.011C390.575,376.925 391.465,376.883 392.347,376.883C399.762,376.884 406.683,379.854 411.995,384.882C417.299,389.91 420.943,396.963 421.721,405.071L425.597,404.699L429.473,404.327C428.514,394.331 424.002,385.529 417.351,379.229C410.706,372.928 401.871,369.095 392.347,369.096C391.217,369.096 390.078,369.15 388.934,369.26C379.351,370.176 370.97,374.873 365.056,381.747C359.134,388.621 355.616,397.695 355.615,407.473C355.615,408.77 355.677,410.079 355.803,411.396C356.762,421.392 361.274,430.193 367.926,436.494C374.57,442.795 383.406,446.628 392.929,446.627C394.059,446.627 395.198,446.573 396.342,446.463C405.925,445.547 414.306,440.85 420.22,433.976C426.142,427.102 429.66,418.028 429.661,408.25C429.661,406.953 429.599,405.644 429.473,404.327L425.597,404.699Z" style="fill:rgb(33,0,2);fill-rule:nonzero;"/>
            <path d="M393.519,403.741C393.855,407.244 393.008,410.521 391.377,412.95C389.822,415.263 387.556,416.811 384.921,417.064C382.284,417.317 379.764,416.228 377.797,414.253C375.734,412.179 374.28,409.123 373.944,405.619C373.288,398.783 377.138,392.819 382.545,392.3C387.949,391.782 392.863,396.905 393.519,403.741Z" style="fill:white;fill-rule:nonzero;"/>
            <path d="M383.299,384.862C382.813,384.862 382.321,384.885 381.838,384.932C376.994,385.396 372.589,388.182 369.752,392.575C367.228,396.485 366.1,401.369 366.575,406.327C367.064,411.423 369.186,416.092 372.549,419.473C375.778,422.717 379.903,424.502 384.166,424.502C384.652,424.502 385.144,424.478 385.629,424.432C390.35,423.979 394.684,421.299 397.521,417.079C400.181,413.118 401.376,408.131 400.887,403.034C399.893,392.674 392.332,384.862 383.299,384.862ZM383.299,392.264C388.399,392.264 392.893,397.224 393.519,403.741C393.855,407.244 393.009,410.521 391.377,412.95C389.822,415.263 387.556,416.811 384.921,417.064C384.668,417.088 384.416,417.1 384.166,417.1C381.805,417.1 379.575,416.039 377.797,414.253C375.734,412.179 374.28,409.123 373.944,405.619C373.288,398.783 377.138,392.819 382.545,392.3C382.797,392.276 383.049,392.264 383.299,392.264Z" style="fill:rgb(84,24,10);fill-rule:nonzero;"/>
            <path d="M443.596,435.989C443.596,435.989 443.552,435.804 443.454,435.466C443.955,435.171 444.37,434.931 444.664,434.746C444.01,435.553 443.596,435.989 443.596,435.989Z" style="fill:rgb(159,37,27);"/>
            <path d="M355.708,439.837C353.19,438.703 350.661,437.449 348.111,436.043L335.761,428.162C335.761,428.162 347.926,366.435 389.466,364.898C390.253,364.869 391.027,364.854 391.795,364.854C431.327,364.854 444.345,403.295 445.318,433.929C445.078,434.234 444.86,434.506 444.664,434.746C444.37,434.931 443.955,435.171 443.454,435.466C442.697,432.673 438.724,419.259 429.649,407.251C429.625,406.282 429.567,405.306 429.473,404.327L427.471,404.519L429.473,404.327C428.514,394.331 424.002,385.529 417.351,379.229C410.706,372.928 401.871,369.095 392.347,369.096C391.217,369.096 390.078,369.15 388.934,369.26C379.351,370.176 370.97,374.873 365.056,381.747C359.134,388.621 355.616,397.695 355.615,407.473C355.615,408.77 355.677,410.079 355.803,411.396C356.262,416.175 357.532,420.681 359.461,424.771C357.904,429.904 356.675,435.048 355.708,439.837Z" style="fill:rgb(192,193,198);fill-rule:nonzero;"/>
            <path d="M363.822,412.743C363.712,412.054 363.623,411.357 363.555,410.652C363.452,409.583 363.402,408.522 363.402,407.473C363.401,399.572 366.247,392.295 370.956,386.83C375.673,381.365 382.19,377.733 389.678,377.011C390.575,376.925 391.465,376.883 392.347,376.883C399.762,376.884 406.683,379.854 411.995,384.882C415.456,388.163 418.209,392.305 419.922,397.04C413.268,391.625 404.965,387.681 394.72,387.091C394.219,387.062 393.728,387.048 393.238,387.048C392.615,387.048 392.002,387.071 391.397,387.116C388.964,385.672 386.208,384.862 383.299,384.862C382.813,384.862 382.321,384.885 381.838,384.932C376.994,385.396 372.589,388.182 369.752,392.575C367.228,396.485 366.1,401.369 366.575,406.327C366.593,406.514 366.614,406.702 366.636,406.889C365.631,408.771 364.695,410.73 363.822,412.743Z" style="fill:rgb(85,37,8);fill-rule:nonzero;"/>
            <path d="M359.461,424.771C357.532,420.681 356.262,416.175 355.803,411.396C355.677,410.079 355.615,408.77 355.615,407.473C355.616,397.695 359.134,388.621 365.056,381.747C370.97,374.873 379.351,370.176 388.934,369.26C390.078,369.15 391.217,369.096 392.347,369.096C401.871,369.095 410.706,372.928 417.351,379.229C424.002,385.529 428.514,394.331 429.473,404.327L427.471,404.519C425.232,401.859 422.723,399.32 419.922,397.04C418.209,392.305 415.456,388.163 411.995,384.882C406.683,379.854 399.762,376.884 392.347,376.883C391.465,376.883 390.575,376.925 389.678,377.011C382.19,377.733 375.673,381.365 370.956,386.83C366.247,392.295 363.401,399.572 363.402,407.473C363.402,408.522 363.452,409.583 363.555,410.652C363.623,411.357 363.712,412.054 363.822,412.743C362.141,416.62 360.697,420.692 359.461,424.771ZM429.649,407.251C428.954,406.331 428.227,405.417 427.471,404.519L429.473,404.327C429.567,405.306 429.625,406.282 429.649,407.251Z" style="fill:rgb(25,2,9);fill-rule:nonzero;"/>
            <path d="M366.636,406.889C366.614,406.702 366.593,406.514 366.575,406.327C366.1,401.369 367.228,396.485 369.752,392.575C372.589,388.182 376.994,385.396 381.838,384.932C382.321,384.885 382.813,384.862 383.299,384.862C386.208,384.862 388.964,385.672 391.397,387.116C380.355,387.941 372.375,396.142 366.636,406.889Z" style="fill:rgb(64,20,15);fill-rule:nonzero;"/>
            <path d="M331.492,427.837C331.98,423.553 332.831,419.552 333.849,415.408C341.881,383.582 363.987,355.748 399.863,360.604C436.72,365.181 451.278,403.035 446.619,436.102C446.325,437.869 443.732,437.71 443.592,435.985C442.555,428.309 441.004,420.654 438.877,413.374C433.231,393.847 422.423,376.306 401.012,372.978C367.485,367.647 351.66,395.439 344.357,423.833C347.262,427.8 353.555,434.968 364.479,440.94C365.46,441.477 364.896,442.969 363.811,442.702C355.585,440.674 343.51,437.421 336.02,434.153C333.426,433.575 331.198,431.364 331.492,427.837Z" style="fill:rgb(25,3,10);fill-rule:nonzero;"/>
            <path d="M499.775,408.88C500.222,412.292 501.29,416.161 504.931,419.104C509.367,422.713 517.64,424.947 533.282,423.312C547.038,421.862 557.338,412.815 564.304,403.855C571.748,394.274 575.389,384.813 575.389,384.813C571.203,367.776 550.188,337.19 524.464,348.068C498.75,358.947 498.783,401.272 499.775,408.88Z" style="fill:white;fill-rule:nonzero;"/>
            <path d="M550.792,385.808C551.597,394.191 549.417,402.047 545.265,407.883C541.307,413.44 535.561,417.176 528.903,417.815C522.236,418.454 515.883,415.88 510.942,411.176C505.756,406.236 502.122,398.939 501.317,390.556C499.748,374.198 509.55,359.869 523.216,358.558C536.874,357.247 549.223,369.45 550.792,385.808Z" style="fill:rgb(112,46,1);fill-rule:nonzero;"/>
            <path d="M545.158,405.058C545.249,406.006 545.282,406.951 545.265,407.883C541.308,413.441 535.561,417.176 528.903,417.815C522.236,418.454 515.883,415.88 510.942,411.176C510.748,410.265 510.601,409.331 510.51,408.383C509.41,396.925 516.274,386.894 525.847,385.975C535.413,385.057 544.058,393.6 545.158,405.058Z" style="fill:rgb(191,134,19);fill-rule:nonzero;"/>
            <path d="M554.67,385.44L546.918,386.184C547.017,387.217 547.066,388.239 547.066,389.248C547.069,395.876 544.969,401.897 541.599,406.29C539.916,408.488 537.923,410.279 535.723,411.577C533.521,412.876 531.117,413.689 528.527,413.939C527.977,413.991 527.43,414.017 526.887,414.017C524.274,414.016 521.737,413.422 519.334,412.298C515.732,410.616 512.44,407.717 509.928,403.906C507.415,400.098 505.693,395.397 505.193,390.188C505.094,389.155 505.046,388.132 505.046,387.124C505.042,380.496 507.142,374.474 510.512,370.082C512.195,367.884 514.189,366.093 516.388,364.794C518.591,363.496 520.995,362.683 523.585,362.433C524.135,362.38 524.682,362.354 525.225,362.354C527.838,362.355 530.374,362.95 532.778,364.074C536.379,365.756 539.672,368.655 542.184,372.466C544.697,376.274 546.419,380.975 546.918,386.184L554.67,385.44C553.84,376.83 550.325,369.197 545.103,363.636C542.49,360.857 539.442,358.595 536.079,357.02C532.717,355.446 529.034,354.566 525.225,354.567C524.434,354.567 523.638,354.605 522.841,354.682C519.081,355.041 515.554,356.242 512.43,358.088C507.738,360.86 503.949,365.052 501.333,370.062C498.717,375.076 497.26,380.928 497.259,387.124C497.259,388.381 497.319,389.651 497.442,390.932C498.271,399.542 501.786,407.175 507.009,412.736C509.622,415.515 512.669,417.777 516.033,419.352C519.393,420.926 523.078,421.806 526.887,421.805C527.677,421.805 528.473,421.767 529.271,421.69C533.03,421.331 536.557,420.13 539.682,418.284C544.374,415.512 548.162,411.32 550.779,406.31C553.395,401.295 554.852,395.443 554.853,389.248C554.853,387.991 554.793,386.72 554.67,385.44Z" style="fill:rgb(33,0,2);fill-rule:nonzero;"/>
            <path d="M525.471,385.992C525.746,388.854 525.168,391.52 524.016,393.487C522.919,395.36 521.302,396.602 519.409,396.784C517.513,396.966 515.69,396.054 514.255,394.423C512.752,392.711 511.678,390.204 511.403,387.342C510.867,381.757 513.581,376.926 517.468,376.553C521.351,376.18 524.935,380.407 525.471,385.992Z" style="fill:white;fill-rule:nonzero;"/>
            <path d="M517.945,370.858C517.606,370.858 517.263,370.875 516.926,370.907C509.815,371.589 504.909,379.046 505.757,387.884C506.136,391.836 507.642,395.488 509.995,398.167C512.44,400.948 515.614,402.479 518.931,402.479C519.27,402.479 519.612,402.462 519.951,402.43C523.586,402.081 526.853,399.866 528.91,396.354C530.713,393.274 531.496,389.402 531.117,385.45C530.319,377.132 524.656,370.858 517.945,370.858ZM517.945,376.53C521.641,376.53 524.957,380.637 525.471,385.992C525.746,388.854 525.168,391.52 524.016,393.487C522.919,395.36 521.302,396.602 519.409,396.784C519.249,396.799 519.09,396.807 518.931,396.807C517.208,396.807 515.568,395.916 514.255,394.423C512.752,392.711 511.678,390.204 511.403,387.342C510.867,381.757 513.581,376.926 517.468,376.553C517.627,376.538 517.786,376.53 517.945,376.53Z" style="fill:rgb(84,24,10);fill-rule:nonzero;"/>
            <path d="M504.931,419.104C501.29,416.161 500.222,412.292 499.775,408.88C499.611,407.625 499.474,405.423 499.474,402.574C499.474,401.849 499.482,401.082 499.502,400.278C500.907,404.24 502.923,407.835 505.418,410.912C505.179,413.749 505.02,416.502 504.931,419.104ZM563.595,404.03C563.595,404.03 560.523,389.334 552.973,377.17C551.298,371.956 548.578,367.337 545.103,363.636C542.49,360.857 539.442,358.595 536.079,357.02C532.717,355.446 529.034,354.566 525.225,354.567C524.434,354.567 523.638,354.605 522.841,354.682C519.081,355.041 515.554,356.242 512.43,358.088C511.978,358.355 511.535,358.635 511.099,358.928C514.508,354.278 518.88,350.431 524.464,348.068C528.199,346.489 531.831,345.784 535.331,345.784C555.933,345.784 571.811,370.25 575.389,384.813C575.389,384.813 571.748,394.274 564.304,403.855C563.846,403.975 563.595,404.03 563.595,404.03Z" style="fill:rgb(192,193,198);fill-rule:nonzero;"/>
            <path d="M507.01,398.137C506.092,395.677 505.464,393.007 505.193,390.188C505.094,389.155 505.046,388.132 505.046,387.124C505.042,380.496 507.142,374.474 510.512,370.082C512.195,367.884 514.189,366.093 516.388,364.794C518.591,363.496 520.995,362.683 523.585,362.433C524.135,362.38 524.682,362.354 525.225,362.354C525.248,362.354 525.272,362.355 525.295,362.355C521.586,363.867 518.491,366.952 515.926,371.05C509.361,372.302 504.949,379.467 505.757,387.884C505.988,390.296 506.64,392.597 507.647,394.633C507.419,395.796 507.207,396.965 507.01,398.137Z" style="fill:rgb(85,37,8);fill-rule:nonzero;"/>
            <path d="M505.418,410.912C502.923,407.835 500.907,404.24 499.502,400.278C499.771,389.253 502.059,371.26 511.099,358.928C511.535,358.635 511.978,358.355 512.43,358.088C515.554,356.242 519.081,355.041 522.841,354.682C523.638,354.605 524.434,354.567 525.225,354.567C529.034,354.566 532.717,355.446 536.079,357.02C539.442,358.595 542.49,360.857 545.103,363.636C548.578,367.337 551.298,371.956 552.973,377.17C548.307,369.652 541.929,363.1 533.511,361.585C532.517,361.406 531.557,361.32 530.625,361.32C528.721,361.32 526.948,361.681 525.295,362.355C525.272,362.355 525.248,362.354 525.225,362.354C524.682,362.354 524.135,362.38 523.585,362.433C520.995,362.683 518.591,363.496 516.388,364.794C514.189,366.093 512.195,367.884 510.512,370.082C507.142,374.474 505.042,380.496 505.046,387.124C505.046,388.132 505.094,389.155 505.193,390.188C505.464,393.007 506.092,395.677 507.01,398.137C506.287,402.432 505.767,406.763 505.418,410.912Z" style="fill:rgb(25,2,9);fill-rule:nonzero;"/>
            <path d="M507.647,394.633C506.64,392.597 505.988,390.296 505.757,387.884C504.949,379.467 509.361,372.302 515.926,371.05C512.054,377.238 509.391,385.738 507.647,394.633Z" style="fill:rgb(64,20,15);fill-rule:nonzero;"/>
            <path d="M504.501,361.194C511.209,348.33 525.685,338.196 540.817,339.527C562.884,342.028 576.452,366.943 579.416,386.809C579.579,388.416 579.14,389.733 578.366,390.722L578.405,390.761C575.119,395.175 568.102,401.39 563.797,405.035C563.017,405.696 561.892,404.823 562.333,403.9C565.301,397.69 567.277,391.286 568.408,387.037C566.95,382.041 564.847,376.975 562.459,372.355C557.515,363.061 550.169,352.67 539.533,351.179C528.775,350.095 518.544,356.978 512.86,366.062C503.363,381.78 502.463,401.221 502.788,419.533C502.845,420.28 502.364,420.989 501.607,421.179C500.768,421.389 499.918,420.88 499.707,420.042C498.096,413.632 497.284,407.172 496.962,400.591C496.405,387.154 498.048,373.442 504.501,361.194Z" style="fill:rgb(25,3,10);fill-rule:nonzero;"/>
            <path d="M572.418,299.326C573.199,302.377 574.223,306.908 575.305,311.935C576.93,319.482 578.694,328.179 580.05,334.981C580.728,338.383 581.305,341.311 581.711,343.389C581.915,344.428 582.076,345.254 582.186,345.82C582.296,346.385 582.355,346.689 582.355,346.69L586.636,345.863L582.276,345.863C582.276,355.882 581.838,368.115 581.398,377.814C581.178,382.666 580.959,386.887 580.794,389.893C580.712,391.397 580.643,392.596 580.595,393.419C580.547,394.241 580.52,394.682 580.52,394.683L580.504,394.947L583.801,449.898C583.838,450.521 583.857,451.144 583.857,451.766C583.857,454.348 583.532,456.901 582.863,459.356C580.714,467.216 574.84,482.048 558.661,498.934C542.477,515.812 515.93,534.775 472.278,550.605L473.764,554.704L473.032,550.406L473.08,550.688L473.033,550.405L473.032,550.406L473.08,550.688L473.033,550.405C472.861,550.434 466.965,551.398 456.866,551.398C442.515,551.398 419.693,549.453 392.692,540.15C365.687,530.843 334.491,514.196 303.279,484.666C301.53,483.011 298.77,483.088 297.115,484.837C295.46,486.586 295.536,489.345 297.285,491C329.416,521.409 361.771,538.724 389.851,548.395C417.935,558.069 441.733,560.118 456.866,560.118C467.863,560.118 474.291,559.037 474.497,559.002L474.882,558.936L475.25,558.803C519.927,542.608 547.724,522.946 564.956,504.968C582.192,486.997 588.806,470.741 591.276,461.649C592.16,458.405 592.577,455.08 592.577,451.766C592.577,450.968 592.553,450.171 592.505,449.376L589.224,394.689L584.872,394.95L589.224,395.216C589.225,395.2 589.667,387.979 590.109,378.209C590.552,368.435 590.995,356.125 590.996,345.863L590.996,345.445L590.916,345.035C590.915,345.027 589.223,336.273 587.124,325.927C586.075,320.753 584.924,315.182 583.83,310.1C582.735,305.014 581.701,300.432 580.866,297.164C580.269,294.832 577.894,293.424 575.561,294.021C573.228,294.618 571.821,296.993 572.418,299.326Z" style="fill:rgb(25,3,10);fill-rule:nonzero;"/>
            <path d="M273.598,420.162L297.273,428.315L319.738,436.043C319.16,434.027 318.648,431.967 318.19,429.885C311.508,400.019 315.629,364.669 315.629,364.669C335.325,342.924 353.256,309.711 353.256,309.711C352.961,330.868 354.716,350.27 354.716,350.27C388.812,329.691 426.592,290.167 426.592,290.167C424.161,310.888 424.161,344.395 424.161,344.395C465.243,327.642 488.537,295.007 488.537,295.007C487.436,318.377 487.436,336.46 487.436,336.46C516.528,322.573 536.814,293.47 536.814,293.47C556.434,306.692 586.856,320.142 586.856,320.142C590.387,276.498 567.018,243.645 567.018,243.645C567.018,243.645 562.472,241.585 554.156,238.882C526.306,229.835 456.207,213.594 373.683,243.645C350.204,252.202 332.208,265.489 318.419,281.011C269.292,336.329 273.598,420.162 273.598,420.162Z" style="fill:rgb(239,235,223);fill-rule:nonzero;"/>
            <path d="M273.598,420.162L297.273,428.315L319.738,436.043C319.16,434.027 318.648,431.967 318.19,429.885C311.508,400.019 315.629,364.669 315.629,364.669C335.325,342.924 353.256,309.711 353.256,309.711C352.961,330.868 354.716,350.27 354.716,350.27C388.812,329.691 426.592,290.167 426.592,290.167C424.161,310.888 424.161,344.395 424.161,344.395C465.243,327.642 488.537,295.007 488.537,295.007C487.436,318.377 487.436,336.46 487.436,336.46C516.528,322.573 536.814,293.47 536.814,293.47C556.434,306.692 586.856,320.142 586.856,320.142C590.387,276.498 567.018,243.645 567.018,243.645C567.018,243.645 562.472,241.585 554.156,238.882C556.87,246.272 559.529,255.014 561.502,264.737C561.502,264.737 539.462,249.815 530.415,239.46C530.415,239.46 525.129,255.548 511.907,270.983C511.907,270.983 509.258,246.959 507.274,236.811C507.274,236.811 482.139,266.35 458.769,278.035C458.769,278.035 456.567,253.129 458.769,227.557C458.769,227.557 413.021,271.495 382.403,288.543C382.403,288.543 376.179,261.652 373.683,243.645C373.683,243.645 341.494,285.611 322.092,301.481C322.092,301.481 320.196,292.925 318.419,281.011C266.54,337.338 273.598,420.162 273.598,420.162Z" style="fill:rgb(204,190,158);fill-rule:nonzero;"/>
            <path d="M567.015,243.646C585.145,263.697 593.987,293.726 591.202,320.494L590.697,326.639C571.258,317.96 552.246,308.825 534.376,297.084L540.39,295.962C538.669,298.374 536.961,300.519 535.115,302.767C525.177,314.763 513.687,325.554 500.588,334.073C495.328,337.499 488.641,340.692 483.054,343.629C483.03,338.091 483.101,331.48 483.183,326.018C483.355,315.93 483.709,304.83 484.179,294.806L492.083,297.545C489.929,300.476 487.653,303.125 485.274,305.83C468.835,324.101 448.549,339 425.81,348.43L419.786,351.035C419.82,344.442 419.803,337.259 419.97,330.727C420.29,316.978 420.743,303.432 422.257,289.655L429.74,293.174C407.439,315.692 383.949,337.164 356.973,354.005L350.983,357.678C350.502,352.245 349.942,345.76 349.649,340.402C349.05,330.157 348.766,319.927 348.891,309.648L357.088,311.78C346.014,331.512 333.881,350.606 318.859,367.601L319.958,365.178C318.788,376.733 318.494,388.718 318.958,400.373C319.465,412.033 320.876,423.748 323.964,434.955C324.594,437.279 323.22,439.674 320.896,440.303C318.572,440.933 316.179,439.563 315.549,437.239C313.911,431.215 312.689,425.139 311.842,419.045C309.423,400.333 309.507,381.595 311.437,362.822C315.382,358.444 319.139,353.893 322.735,349.153C335.961,331.711 347.46,311.646 357.815,292.335C357.534,311.088 357.332,331.263 359.063,349.877L352.468,346.539C365.566,338.509 377.798,328.953 389.524,318.969C404.408,306.25 418.852,292.139 432.347,277.951C429.502,299.799 428.559,322.347 428.523,344.393L422.516,340.356C434.001,335.571 444.873,329.326 454.858,321.888C463.453,315.399 471.583,308.045 478.769,300.023C483.116,295.375 489.693,286.055 493.558,280.904C492.651,299.041 491.854,318.344 491.793,336.457L485.554,332.522C487.517,331.445 490.628,329.999 492.493,328.779C499.342,324.755 505.769,319.917 511.697,314.595C520.68,306.558 528.863,297.412 535.726,287.501C552.19,298.765 570.437,307.869 588.619,316.155L582.51,319.792C582.573,313.348 582.773,306.925 582.132,300.499C581.836,295.847 581.111,290.667 580.282,286.079C577.652,271.402 573.035,257.365 567.015,243.646Z" style="fill:rgb(25,3,10);fill-rule:nonzero;"/>
            <path d="M319.144,367.252C310.544,377.733 298.408,384.612 286.704,391.04L285.046,386.067C282.058,376.646 281.365,366.683 281.976,356.88C282.449,351.089 283.511,345.297 285.499,339.845C285.812,343.707 286.005,347.454 286.48,351.173C287.685,362.089 290.109,372.786 293.3,383.256L287.119,380.816C294.112,377.036 300.984,372.65 306.928,367.388C308.793,365.706 310.665,363.927 312.203,361.977C315.82,357.529 322.464,362.557 319.144,367.252Z" style="fill:rgb(25,3,10);fill-rule:nonzero;"/>
            <path d="M348.401,181.112C348.401,181.112 353.545,169.06 370.446,163.035C370.446,163.035 361.04,173.469 357.807,182.875C357.807,182.875 371.181,183.757 380.293,186.696C380.293,186.696 361.922,189.783 353.251,189.342L343.845,201.54C343.845,201.54 343.551,193.163 343.11,186.403C343.11,186.403 332.822,186.99 319.007,191.252C319.007,191.252 332.1,178.659 348.401,181.112Z" style="fill:rgb(204,190,158);fill-rule:nonzero;"/>
            <path d="M303.386,521.643C211.704,535.904 130.873,412.633 130.873,412.633C248.381,389.699 303.616,421.213 303.616,421.213C303.616,421.213 321.786,425.268 328.854,433.455C350.258,458.285 372.346,510.917 303.386,521.643Z" style="fill:rgb(211,47,26);fill-rule:nonzero;"/>
            <path d="M272.77,442.183C272.77,442.183 225.199,424.845 155.014,425.514C154.054,425.523 153.531,426.652 154.156,427.382C166.613,441.917 251.646,536.876 319.201,502.808C322.063,501.364 323.001,497.72 321.22,495.054C320.118,493.405 318.197,492.484 316.225,492.702C311.272,493.253 300.741,493.168 287.821,485.801C269.751,475.498 265.54,451.898 272.77,442.183Z" style="fill:rgb(147,17,7);fill-rule:nonzero;"/>
            <path d="M331.005,436.043C262.732,413.223 144.001,412.632 131.879,412.632C131.217,412.632 130.873,412.633 130.873,412.633C162.223,406.515 189.143,404.271 211.762,404.271C273.925,404.271 303.616,421.213 303.616,421.213C303.616,421.213 323.937,427.857 331.005,436.043Z" style="fill:rgb(237,172,163);fill-rule:nonzero;"/>
            <path d="M159.314,425.996C183.581,423.091 207.974,425.789 232.085,428.981C244.18,430.824 256.16,433.474 267.857,437.13C279.594,440.869 291.611,445.322 300.282,454.49C297.072,454.109 294.115,453.381 291.15,452.704C282.41,450.625 274.062,447.575 265.455,445.1C259.745,443.449 253.973,442.003 248.19,440.56C230.715,436.415 213.102,432.953 195.237,430.658C183.305,429.171 171.363,427.846 159.314,425.996Z" style="fill:rgb(25,3,10);fill-rule:nonzero;"/>
            <path d="M274.764,444.341C271.844,455.624 272.454,468.841 279.957,478.235C283.464,482.552 288.066,485.812 293.183,488.086C298.721,490.653 304.802,492.299 311.042,493.707C304.662,494.211 298.12,493.669 291.807,491.712C269.714,485.208 261.553,463.266 266.372,441.971C268.022,436.299 276.324,438.627 274.764,444.341Z" style="fill:rgb(25,3,10);fill-rule:nonzero;"/>
            <path d="M208.945,432.112C209.201,440.827 211.852,449.438 216.211,457.008C220.774,464.844 227.486,471.234 235.437,475.657C222.328,470.392 211.824,459.517 206.453,446.458C204.58,441.944 203.131,437.278 202.503,432.394C202.193,427.87 208.854,427.564 208.945,432.112Z" style="fill:rgb(25,3,10);fill-rule:nonzero;"/>
            <path d="M328.854,433.455C316.292,430.446 304.76,425.636 292.712,421.339C272.947,414.615 252.331,410.315 231.557,408.478C200.333,405.555 168.709,408.388 138.179,415.38L132.051,416.832L134.516,410.244C153.374,436.771 175.552,461.429 200.92,481.881C234.28,508.908 276.794,528.248 319.798,514.339C324.845,512.733 329.735,510.651 334.014,507.829C338.535,504.622 341.879,501.771 346.273,497.943C347.761,510.181 331.233,517.274 321.919,520.693C253.377,544.312 188.775,491.713 147.362,441.999C138.904,431.82 131.052,421.155 123.892,409.944L129.688,408.438C179.282,392.736 233.958,392.42 283.505,408.563C299.77,414.168 317.367,419.906 328.854,433.455Z" style="fill:rgb(25,3,10);fill-rule:nonzero;"/>
            <path d="M693.694,441.61C693.163,442.9 692.536,444.115 691.823,445.251C681.775,461.549 655.727,462.608 647.442,454.473L658.184,444.349C658.184,444.349 667.273,443.239 666.217,435C666.217,435 666.086,431.69 662.773,428.014C661.602,426.713 660.675,425.252 660.011,423.694C658.161,419.387 658.341,414.407 661.018,410.343C661.484,409.63 662.027,408.92 662.636,408.213C667.929,402.101 677.161,401.556 683.371,406.75C691.414,413.465 700.46,425.308 693.694,441.61Z" style="fill:rgb(255,197,11);fill-rule:nonzero;"/>
            <path d="M691.823,445.251C681.776,461.549 655.727,462.608 647.442,454.473L658.184,444.349C658.184,444.349 667.273,443.239 666.217,435C666.217,435 666.086,431.69 662.773,428.015C661.602,426.713 660.675,425.252 660.011,423.694C660.417,423.317 660.646,423.115 660.646,423.115L669.057,432.048C669.057,432.048 666.833,462.614 691.823,445.251Z" style="fill:rgb(237,137,17);fill-rule:nonzero;"/>
            <path d="M681.735,434.546C678.705,434.546 675.715,432.426 674.92,429.103C674.2,426.09 672.726,422.408 669.734,419.175C665.742,414.861 669.057,410.38 674.027,410.38C677.061,410.38 680.712,412.049 683.695,416.445C688.882,424.088 689.354,429.948 685.892,432.975C684.657,434.056 683.191,434.546 681.735,434.546Z" style="fill:rgb(255,232,157);fill-rule:nonzero;"/>
            <path d="M666.22,435L670.576,434.824C670.561,434.479 670.472,433.227 669.857,431.454C669.245,429.685 668.09,427.396 666.014,425.097C664.138,423.021 663.144,420.373 663.148,417.847C663.152,416.038 663.633,414.306 664.661,412.741C665.025,412.188 665.444,411.63 665.93,411.069C666.947,409.897 668.144,409.035 669.46,408.451C670.774,407.868 672.207,407.57 673.659,407.57C676.092,407.572 678.544,408.4 680.571,410.093C683.18,412.265 686.041,415.565 688.148,419.357C690.271,423.155 691.635,427.409 691.628,431.584C691.624,434.295 691.08,436.989 689.768,439.715C688.445,442.452 686.767,444.758 684.827,446.71C681.919,449.634 678.402,451.763 674.656,453.163C670.915,454.564 666.952,455.22 663.29,455.219C660.385,455.221 657.674,454.805 655.449,454.09C653.219,453.383 651.507,452.368 650.49,451.359L647.437,454.471L650.427,457.644L661.17,447.519L658.18,444.346L658.708,448.674C658.862,448.654 659.559,448.563 660.573,448.293C661.335,448.09 662.276,447.786 663.307,447.312C664.843,446.601 666.627,445.505 668.124,443.67C668.867,442.756 669.52,441.655 669.97,440.402C670.423,439.149 670.666,437.754 670.665,436.291C670.665,435.688 670.624,435.072 670.544,434.446L666.22,435L670.576,434.824L666.22,435L661.895,435.554C661.93,435.831 661.945,436.076 661.945,436.291C661.944,436.757 661.881,437.086 661.798,437.352C661.649,437.807 661.437,438.122 661.078,438.471C660.556,438.985 659.64,439.455 658.848,439.711C658.456,439.842 658.106,439.927 657.879,439.974C657.766,439.998 657.684,440.012 657.643,440.018L657.613,440.023L657.913,442.162L657.652,440.018L657.613,440.023L657.913,442.162L657.652,440.018L656.231,440.191L641.146,454.408L644.383,457.584C646.678,459.823 649.579,461.362 652.792,462.396C656.01,463.423 659.569,463.937 663.29,463.939C669.535,463.933 676.26,462.487 682.415,459.212C685.488,457.574 688.412,455.471 691.009,452.86C693.606,450.25 695.872,447.13 697.621,443.507C699.525,439.57 700.352,435.494 700.348,431.584C700.342,425.527 698.433,419.902 695.764,415.109C693.08,410.31 689.63,406.307 686.163,403.402C682.535,400.369 678.076,398.848 673.659,398.85C671.018,398.85 668.381,399.391 665.926,400.478C663.473,401.564 661.204,403.204 659.339,405.36C658.603,406.21 657.951,407.075 657.379,407.944C655.376,410.98 654.424,414.446 654.428,417.847C654.432,422.615 656.248,427.282 659.538,430.937C660.772,432.308 661.338,433.511 661.62,434.316C661.76,434.717 661.824,435.017 661.852,435.175L661.87,435.3L663.831,435.097L661.863,435.176L661.87,435.3L663.831,435.097L661.863,435.176L661.871,435.365L661.895,435.554L666.22,435Z" style="fill:rgb(25,3,10);fill-rule:nonzero;"/>
        </g>
    </g>
</svg>
